<svg width="190" height="39" viewBox="0 0 190 39" fill="none" xmlns="http://www.w3.org/2000/svg">
<g clip-path="url(#clip0_1203_295)">
<path fill-rule="evenodd" clip-rule="evenodd" d="M5.45395 5.17339L14.7 10.3462V22.5507L9.24655 19.5003L0 14.3269L5.45395 5.17339ZM14.6999 10.3462V0H25.6078V10.3462L34.8544 5.17337L40.3083 14.3268L31.0617 19.5002L14.6999 10.3462Z" fill="url(#paint0_linear_1203_295)"/>
<path fill-rule="evenodd" clip-rule="evenodd" d="M31.0617 19.5002L40.3083 24.6731L34.8544 33.8266L25.6078 28.6537L25.6078 39H14.6999V28.6537L20.1544 25.6022L25.6078 22.5512L31.0617 19.5002ZM14.7 16.4492V28.6537L5.4539 33.8266L0 24.6731L9.24655 19.5002L14.7 16.4492Z" fill="url(#paint1_linear_1203_295)"/>
<path fill-rule="evenodd" clip-rule="evenodd" d="M62.3112 18.8089V22.2128C62.3112 24.0069 63.8422 24.9654 65.6284 24.9654C67.5932 24.9654 68.9966 24.0069 68.9966 22.2128V18.8089H73.4621V22.2128C73.4621 26.2679 70.196 28.5535 65.6284 28.5535C61.265 28.5535 57.8201 26.2679 57.8201 22.2128V18.8089H62.3112ZM87.8685 12.0135C90.2416 12.0135 91.9513 12.6525 93.0995 13.8568C93.9671 14.7661 94.4774 15.9212 94.4774 17.2238C94.4774 18.6246 93.865 19.878 92.8444 20.8119C91.7471 21.8196 90.1906 22.4094 87.8685 22.4094H83.1463V28.062H78.6808V12.0135H87.8685ZM88.1237 15.5034H83.1463V18.9196H88.1237C88.6851 18.9196 89.1444 18.7721 89.4505 18.4772C89.7823 18.1577 90.0119 17.6907 90.0119 17.2238C90.0119 16.7568 89.8078 16.2898 89.4761 15.9704C89.1189 15.6263 88.634 15.5034 88.1237 15.5034ZM60.0657 11.1428C61.3489 11.1428 62.3892 12.1448 62.3892 13.3807C62.3892 14.6166 61.3489 15.6186 60.0657 15.6186C58.7824 15.6186 57.7422 14.6166 57.7422 13.3807C57.7422 12.1448 58.7824 11.1428 60.0657 11.1428ZM71.251 11.1428C72.5342 11.1428 73.5745 12.1448 73.5745 13.3807C73.5745 14.6166 72.5342 15.6186 71.251 15.6186C69.9678 15.6186 68.9275 14.6166 68.9275 13.3807C68.9275 12.1448 69.9678 11.1428 71.251 11.1428Z" fill="#7D3BFF"/>
<path fill-rule="evenodd" clip-rule="evenodd" d="M125.707 11.522C131.015 11.522 135.276 15.3313 135.276 20.0009C135.276 24.7441 131.015 28.5535 125.707 28.5535C120.4 28.5535 116.24 24.7441 116.24 20.0009C116.24 15.3313 120.4 11.522 125.707 11.522ZM143.127 12.0135L150.502 20.7627H150.527V12.0135H155.018V28.062H151.242L143.893 19.3373H143.867V28.062H139.376V12.0135H143.127ZM164.943 12.0135V24.4492H174.308V28.062H160.477V12.0135H164.943ZM178.135 12.0135L181.478 16.9534L184.769 12.0135H190L183.595 20.7873V28.062H179.104V20.7873L172.674 12.0135H178.135ZM125.707 15.1347C122.977 15.1347 120.859 17.3466 120.859 20.0009C120.859 22.7043 122.977 24.9653 125.707 24.9653C128.463 24.9653 130.632 22.7043 130.632 20.0009C130.632 17.3466 128.463 15.1347 125.707 15.1347Z" fill="#37E596"/>
<path fill-rule="evenodd" clip-rule="evenodd" d="M109.527 18.0251L112.491 16.4019L110.743 13.5302L107.78 15.1529V11.9075H104.284V15.1529L101.321 13.5302L99.5732 16.4019L102.537 18.0251L99.5732 19.6479L101.321 22.5195L104.284 20.8967V24.1428H107.78V20.8967L110.743 22.5195L112.491 19.6479L109.527 18.0251Z" fill="#7C3AFF"/>
<g filter="url(#filter0_d_1203_295)">
<path d="M14.7002 10.3462V28.6537L31.0619 19.5002L14.7002 10.3462Z" fill="black"/>
</g>
<path d="M14.7002 10.3462V28.6537L31.0619 19.5002L14.7002 10.3462Z" fill="white"/>
</g>
<defs>
<filter id="filter0_d_1203_295" x="9.7002" y="6.34619" width="26.3613" height="28.3076" filterUnits="userSpaceOnUse" color-interpolation-filters="sRGB">
<feFlood flood-opacity="0" result="BackgroundImageFix"/>
<feColorMatrix in="SourceAlpha" type="matrix" values="0 0 0 0 0 0 0 0 0 0 0 0 0 0 0 0 0 0 127 0" result="hardAlpha"/>
<feOffset dy="1"/>
<feGaussianBlur stdDeviation="2.5"/>
<feColorMatrix type="matrix" values="0 0 0 0 0.154259 0 0 0 0 0.148469 0 0 0 0 0.294646 0 0 0 0.1819 0"/>
<feBlend mode="normal" in2="BackgroundImageFix" result="effect1_dropShadow_1203_295"/>
<feBlend mode="normal" in="SourceGraphic" in2="effect1_dropShadow_1203_295" result="shape"/>
</filter>
<linearGradient id="paint0_linear_1203_295" x1="20.1541" y1="0" x2="20.1541" y2="22.5507" gradientUnits="userSpaceOnUse">
<stop stop-color="#4FF1B6"/>
<stop offset="1" stop-color="#27DE7F"/>
</linearGradient>
<linearGradient id="paint1_linear_1203_295" x1="20.1541" y1="16.4492" x2="20.1541" y2="39" gradientUnits="userSpaceOnUse">
<stop stop-color="#9A4FFF"/>
<stop offset="1" stop-color="#6127FF"/>
</linearGradient>
<clipPath id="clip0_1203_295">
<rect width="190" height="39" fill="white"/>
</clipPath>
</defs>
</svg>
