<svg width="193" height="39" viewBox="0 0 193 39" fill="none" xmlns="http://www.w3.org/2000/svg">
<path d="M73.1462 7.97754H68.404L61.713 19.3925L54.957 7.97754H50.2148V32.0398H54.8271V16.4739L61.4531 27.6295H61.9728L68.5989 16.4739V32.1047H73.2111L73.1462 7.97754Z" fill="#0C2722"/>
<path d="M77.3682 32.1046H81.7206V14.9172H77.3682V32.1046Z" fill="#0C2722"/>
<path d="M94.9736 14.3984C92.6999 14.3984 90.946 15.2416 89.9715 16.7982V14.8524H85.6191V32.0398H89.9715V22.7651C89.9715 19.7816 91.5306 18.4845 93.6743 18.4845C95.6232 18.4845 96.9874 19.7168 96.9874 22.0517V32.0398H101.34V21.5328C101.34 16.9279 98.5464 14.3984 94.9736 14.3984Z" fill="#0C2722"/>
<path d="M114.656 19.1331V14.8525H110.888V10.053L106.601 12.1933V14.9173H103.678V19.1979H106.601V26.3323C106.601 31.0021 108.68 32.8181 114.721 32.1047V28.0186C112.253 28.1483 110.953 28.0835 110.953 26.2675V19.1331C110.953 19.1331 114.656 19.1331 114.656 19.1331Z" fill="#0C2722"/>
<path d="M117.71 32.1047H122.062V7.00464H117.71V32.1047Z" fill="#0C2722"/>
<path d="M138.757 14.8524V16.863C137.458 15.1767 135.379 14.2687 133.3 14.3336C128.818 14.3336 125.115 18.2899 125.115 23.4137C125.115 28.5375 128.818 32.4938 133.3 32.4938C135.444 32.5587 137.458 31.6506 138.757 29.9643V31.9749H143.11V14.7876L138.757 14.8524ZM134.08 28.3429C131.416 28.3429 129.468 26.3972 129.468 23.4785C129.468 20.5599 131.416 18.6142 134.08 18.6142C136.743 18.6142 138.757 20.5599 138.757 23.4785C138.757 26.3972 136.743 28.3429 134.08 28.3429Z" fill="#0C2722"/>
<path d="M157.986 14.8523L154.283 26.397L149.931 14.8523H145.188L152.074 31.5208C151.295 33.8557 150.061 34.8285 147.657 34.8285V38.9794C151.944 39.2389 154.803 37.0337 156.557 32.1045L162.663 14.9172L157.986 14.8523Z" fill="#0C2722"/>
<path d="M167.664 25.2946H180.332C180.462 24.7108 180.527 24.0623 180.527 23.4785C180.527 18.4196 177.019 14.3984 172.017 14.3984C166.755 14.3984 163.117 18.3548 163.117 23.4785C163.117 28.6023 166.69 32.5587 172.342 32.5587C175.265 32.6884 177.993 31.2615 179.682 28.8618L176.174 26.7863C175.265 27.9537 173.901 28.5375 172.407 28.5375C170.133 28.5375 168.314 27.5646 167.664 25.2946ZM167.6 21.8571C167.989 19.7816 169.873 18.2251 172.017 18.3548C174.096 18.2899 175.85 19.7816 176.174 21.8571H167.6Z" fill="#0C2722"/>
<path d="M187.868 17.8358V14.8524H183.516V32.0397H187.868V23.8028C187.868 20.1707 190.726 19.133 193 19.4573V14.5281C190.856 14.5281 188.713 15.5009 187.868 17.8358Z" fill="#0C2722"/>
<path d="M0 0.0649414L7.47055 3.24298V35.6719L0 38.7851V0.0649414Z" fill="#11967F"/>
<path d="M39.1073 38.7202L31.6367 35.5421V3.17804L39.1073 0V38.7202Z" fill="#11967F"/>
<path d="M10.6543 34.3099L17.9949 31.1968V18.744L10.6543 15.6309V34.3099Z" fill="#11967F"/>
<path d="M28.5174 4.54004L21.1768 7.65322V20.0411L28.5174 23.1543V4.54004Z" fill="#11967F"/>
<path d="M77.3682 9.85826V12.258H81.7206V8.04224L77.3682 9.85826Z" fill="#0C2722"/>
</svg>
