<svg width="24" height="24" viewBox="0 0 24 24" fill="none" xmlns="http://www.w3.org/2000/svg">
<path d="M23.2153 2.25L23.7142 2.21692C23.7009 2.01635 23.5688 1.84324 23.3788 1.7775C23.1889 1.71176 22.978 1.76616 22.8436 1.9156L23.2153 2.25ZM22.1106 7.00538C22.1106 6.72924 21.8868 6.50538 21.6106 6.50538C21.3345 6.50538 21.1106 6.72924 21.1106 7.00538H22.1106ZM12 8.4375V8.9375H12.5V8.4375H12ZM2.35466 2.25L2.82292 2.07468C2.75315 1.88834 2.57954 1.7611 2.38084 1.75069C2.18215 1.74027 1.99618 1.84865 1.90731 2.02667L2.35466 2.25ZM8.625 16.875L8.97883 17.2283C9.10119 17.1057 9.15142 16.9286 9.11161 16.76C9.07179 16.5915 8.9476 16.4556 8.78333 16.4007L8.625 16.875ZM0.75 19.9286V19.4286C0.529732 19.4286 0.335411 19.5727 0.271506 19.7835C0.2076 19.9943 0.289167 20.2221 0.472353 20.3444L0.75 19.9286ZM20.3829 3.81436L20.0121 4.1497L20.1922 4.34895L20.4578 4.30872L20.3829 3.81436ZM22.7164 2.28308C22.8003 3.54837 22.7262 4.35596 22.5031 4.98488C22.2837 5.60336 21.9024 6.09931 21.2647 6.71042L21.9565 7.43244C22.6448 6.77292 23.1514 6.14859 23.4456 5.31921C23.7361 4.50028 23.8014 3.53247 23.7142 2.21692L22.7164 2.28308ZM22.1106 8.17633V7.07143H21.1106V8.17633H22.1106ZM22.1106 7.07143V7.00538H21.1106V7.07143H22.1106ZM11.5 7.3125V8.4375H12.5V7.3125H11.5ZM16.8626 1.75C13.8659 1.75 11.5 4.36323 11.5 7.3125H12.5C12.5 4.86321 14.469 2.75 16.8626 2.75V1.75ZM21.1106 8.17633C21.1106 15.2882 15.1434 21.4375 8.0625 21.4375V22.4375C15.7152 22.4375 22.1106 15.8208 22.1106 8.17633H21.1106ZM1.88641 2.42532C2.74049 4.7064 5.95975 8.9375 12 8.9375V7.9375C6.48668 7.9375 3.5735 4.07932 2.82292 2.07468L1.88641 2.42532ZM1.90731 2.02667C0.255549 5.3353 -0.0188105 8.54358 1.11712 11.262C2.25307 13.9804 4.7585 16.1113 8.46667 17.3493L8.78333 16.4007C5.27051 15.228 3.03612 13.2607 2.03981 10.8764C1.04349 8.49213 1.24445 5.59327 2.80201 2.47333L1.90731 2.02667ZM8.27117 16.5217C7.2726 17.5218 4.43956 19.4286 0.75 19.4286V20.4286C4.76282 20.4286 7.83788 18.371 8.97883 17.2283L8.27117 16.5217ZM20.7538 3.47902C19.7944 2.4179 18.4061 1.75 16.8626 1.75V2.75C18.1114 2.75 19.234 3.28921 20.0121 4.1497L20.7538 3.47902ZM20.4578 4.30872C21.6079 4.13454 22.7375 3.52864 23.587 2.5844L22.8436 1.9156C22.1429 2.69444 21.2203 3.18184 20.3081 3.32L20.4578 4.30872ZM0.472353 20.3444C2.9876 22.0238 5.40752 22.4375 8.0625 22.4375V21.4375C5.53152 21.4375 3.32639 21.0476 1.02765 19.5127L0.472353 20.3444Z" fill="white"/>
</svg>
