<svg width="24" height="24" viewBox="0 0 24 24" fill="none" xmlns="http://www.w3.org/2000/svg">
<path fill-rule="evenodd" clip-rule="evenodd" d="M14.5714 6.85714C14.5714 8.4351 13.2922 9.71429 11.7143 9.71429C10.1363 9.71429 8.85714 8.4351 8.85714 6.85714C8.85714 5.27919 10.1363 4 11.7143 4C13.2922 4 14.5714 5.27919 14.5714 6.85714ZM15.5714 6.85714C15.5714 8.98738 13.8445 10.7143 11.7143 10.7143C9.58404 10.7143 7.85714 8.98738 7.85714 6.85714C7.85714 4.7269 9.58404 3 11.7143 3C13.8445 3 15.5714 4.7269 15.5714 6.85714ZM5 20V17.1429C5 14.8548 6.85482 13 9.14286 13H14.2857C16.5738 13 18.4286 14.8548 18.4286 17.1429V20H5ZM19.4286 17.1429V20V21H18.4286H5H4V20V17.1429C4 14.3025 6.30254 12 9.14286 12H14.2857C17.126 12 19.4286 14.3025 19.4286 17.1429Z" fill="#DDDDDD"/>
</svg>
