<svg xmlns="http://www.w3.org/2000/svg" width="24" height="24" viewBox="0 0 24 24">
  <defs>
    <style>
      .cls-1 {
        fill: #fff;
        fill-rule: evenodd;
      }
    </style>
  </defs>
  <path id="user" class="cls-1" d="M21.989,19.172a0.114,0.114,0,0,1,0,.022,14,14,0,0,1-1.261,1.271A13.865,13.865,0,0,1,2.281,20.43a13.994,13.994,0,0,1-1.258-1.278,0.023,0.023,0,0,1,0-.012A11.054,11.054,0,0,1,8.19,12a6.455,6.455,0,1,1,6.706.028A11.054,11.054,0,0,1,21.989,19.172ZM16.606,6.477A5.04,5.04,0,1,0,11,11.5c0.166-.007.333-0.012,0.5-0.012,0.2,0,.4.006,0.6,0.016A5.051,5.051,0,0,0,16.606,6.477ZM11.5,13.043a9.464,9.464,0,0,0-8.731,5.831,0.1,0.1,0,0,0,0,.034,12.429,12.429,0,0,0,17.479.029,0.018,0.018,0,0,0,0-.018A9.464,9.464,0,0,0,11.5,13.043Z"/>
</svg>
