<svg xmlns="http://www.w3.org/2000/svg" width="24" height="24" viewBox="0 0 24 24">
  <defs>
    <style>
      .cls-1 {
        fill: #fff;
        fill-rule: evenodd;
      }
    </style>
  </defs>
  <path id="tgm2" class="cls-1" d="M23.365,1.529a1.448,1.448,0,0,1,.419.049,1.515,1.515,0,0,1,.1,1.4L23.34,6.236,21.369,17.917l-0.493,2.957a1.873,1.873,0,0,1-.493,1.38c-0.581.036-1.867-1.039-2.341-1.355q-3-2-5.988-3.992l-1.774-1.183a0.594,0.594,0,0,1-.419-0.69,9.721,9.721,0,0,1,1.281-1.626l3.3-4.165H14.419a9.506,9.506,0,0,1-1.626,1.084q-1.77,1.178-3.549,2.366l-1.479.986a1.935,1.935,0,0,1-.591.37A5.233,5.233,0,0,1,5.4,13.26L1.752,11.436A5.569,5.569,0,0,1,0,10.426C-0.041,9.642.711,9.667,1.284,9.44,2.635,8.9,4.052,8.5,5.424,7.961ZM22.823,2.811L7.3,8.38c-1.371.545-2.789,0.942-4.14,1.479a5.4,5.4,0,0,0-1.331.493H1.875L5.178,12a10.351,10.351,0,0,0,1.9.936l7.714-5.175,2-1.306a0.56,0.56,0,0,1,.641.32,1.061,1.061,0,0,1-.419.887c-0.383.505-.8,0.979-1.183,1.479l-4.707,5.939a2.839,2.839,0,0,1,.591.394q0.744,0.5,1.479.986,2.3,1.534,4.584,3.056l1.553,1.035a2.132,2.132,0,0,0,.517.3l2.292-13.6L22.65,3.994A3.936,3.936,0,0,0,22.823,2.811Z"/>
</svg>
