<svg width="24" height="24" viewBox="0 0 24 24" fill="none" xmlns="http://www.w3.org/2000/svg">
<g clip-path="url(#clip0_1069_505)">
<path d="M23.4562 4.26772C23.0792 4.43492 22.6915 4.57606 22.2954 4.69067C22.7643 4.16033 23.1219 3.53633 23.3401 2.8535C23.389 2.70045 23.3383 2.53292 23.2125 2.4328C23.0868 2.33263 22.9123 2.32062 22.774 2.40261C21.9328 2.9015 21.0253 3.26005 20.0737 3.46967C19.1152 2.53306 17.8133 2 16.4674 2C13.6265 2 11.3153 4.31122 11.3153 7.15203C11.3153 7.37576 11.3294 7.59828 11.3575 7.8177C7.83217 7.50819 4.55477 5.77545 2.30421 3.01475C2.224 2.91636 2.10044 2.8633 1.97393 2.87347C1.84736 2.88336 1.7336 2.95475 1.66966 3.06448C1.21319 3.84772 0.971879 4.74355 0.971879 5.65503C0.971879 6.89647 1.41508 8.0743 2.19804 8.99469C1.95996 8.91223 1.72896 8.8092 1.50846 8.68681C1.3901 8.6209 1.24563 8.62194 1.12802 8.68934C1.01036 8.75679 0.936583 8.88078 0.933442 9.01634C0.932879 9.03917 0.932879 9.062 0.932879 9.08515C0.932879 10.9382 1.93019 12.6065 3.45499 13.5158C3.32397 13.5027 3.1931 13.4837 3.06302 13.4589C2.92891 13.4332 2.79105 13.4802 2.70063 13.5825C2.61007 13.6847 2.58007 13.8272 2.62183 13.9572C3.18621 15.7193 4.63928 17.0154 6.39592 17.4105C4.93896 18.3231 3.27283 18.8011 1.52379 18.8011C1.15882 18.8011 0.791786 18.7797 0.432583 18.7371C0.254129 18.7159 0.0835046 18.8213 0.0227077 18.991C-0.0380892 19.1608 0.026364 19.3501 0.178145 19.4474C2.4251 20.8881 5.02319 21.6496 7.69146 21.6496C12.9369 21.6496 16.2183 19.176 18.0474 17.101C20.3282 14.5135 21.6362 11.0887 21.6362 7.70483C21.6362 7.56345 21.634 7.42072 21.6297 7.2784C22.5295 6.60045 23.3042 5.77995 23.9347 4.83692C24.0304 4.69372 24.0201 4.50439 23.9091 4.37258C23.7985 4.24053 23.6138 4.19787 23.4562 4.26772Z" fill="white"/>
</g>
<defs>
<clipPath id="clip0_1069_505">
<rect width="24" height="24" fill="white"/>
</clipPath>
</defs>
</svg>
