<svg xmlns="http://www.w3.org/2000/svg" width="24" height="24" viewBox="0 0 24 24">
  <defs>
    <style>
      .cls-1 {
        fill: #fff;
        fill-rule: evenodd;
      }
    </style>
  </defs>
  <path id="tgm" class="cls-1" d="M22.391,2.081c0.4-.1.576-0.011,0.621,0.378-1.107,4.651-2.168,9.219-3.429,13.769l-0.837,3.294a1.655,1.655,0,0,1-.486,1.134,1.613,1.613,0,0,1-1.323-.324L14.13,18.9A1.639,1.639,0,0,0,13.1,18.55a2.53,2.53,0,0,0-.81.81l-1.863,2.106a1.081,1.081,0,0,1-1.161.621C8.8,21.91,8.738,21.116,8.595,20.6c-0.4-1.566-.81-3.078-1.215-4.644a3.158,3.158,0,0,0-1.512-.837L2.439,13.663C2.03,13.492.664,13.2,1.171,12.448a4.362,4.362,0,0,1,1.512-.783l4.1-2ZM21.23,4.943l-9.5,11.5c3.771,1.92,5.79,2.989,5.967,3.051C18.9,14.68,20.105,9.784,21.311,4.97,21.319,4.923,21.268,4.9,21.23,4.943Zm-2.619.135-15.6,7.613L3.06,12.772,6.543,14.2a3.21,3.21,0,0,0,1.161.432,7.316,7.316,0,0,0,1.215-1.026l2.43-2.106,7.4-6.344C18.781,5.068,18.7,5.052,18.611,5.078ZM17.45,7.642l-2.43,2.106-3.969,3.483A21.268,21.268,0,0,0,8.46,15.5c0.3,1.494.835,3.171,1.053,4.05l0.351-1.242,0.486-1.782A13.736,13.736,0,0,1,12.51,13.8l5.022-6.075V7.642H17.45Zm-6.236,9.773-0.567,2.079,0.027,0.027,0.189-.162,1.269-1.512Z"/>
</svg>
