<svg width="24" height="24" viewBox="0 0 24 24" fill="none" xmlns="http://www.w3.org/2000/svg">
<path d="M14.9726 2.23194C13.0172 1.77763 10.9835 1.77763 9.02808 2.23195C7.89867 1.5387 7.03566 1.22058 6.40843 1.08654C6.06742 1.01366 5.79713 0.995456 5.59384 1.0009C5.49238 1.0036 5.40841 1.01218 5.34153 1.02248C5.30813 1.02762 5.2791 1.03317 5.2544 1.03858C5.24205 1.04128 5.23078 1.04395 5.22062 1.04653L5.20619 1.05029L5.1996 1.0521L5.19645 1.05298L5.19341 1.05384C5.19339 1.05384 5.19341 1.05382 5.19341 1.05384C5.19272 1.05414 5.19609 1.06323 5.41318 1.82232L5.19341 1.05384C4.96616 1.11882 4.77928 1.28098 4.68291 1.49678C4.41385 2.09923 4.26691 2.74906 4.25056 3.40866C4.2384 3.89883 4.29854 4.38718 4.42829 4.85813C4.08733 5.27112 3.80952 5.73358 3.60481 6.23051C3.33614 6.88277 3.1987 7.5816 3.20037 8.28702C3.20057 10.7711 3.93344 12.4413 5.18237 13.5145C6.0574 14.2664 7.12117 14.6665 8.1863 14.8957C8.01041 15.3843 7.96477 15.9013 8.00037 16.4282V17.3853C7.34861 17.5224 6.89856 17.479 6.57771 17.3731C6.17454 17.24 5.86545 16.9725 5.57062 16.588C5.42129 16.3934 5.28373 16.1797 5.13926 15.9458L5.04757 15.7965C4.93443 15.6117 4.81233 15.4125 4.68912 15.2307C4.38382 14.7805 3.93341 14.2179 3.20352 14.0262L2.42974 13.8231L2.02344 15.3706L2.79721 15.5738C2.92433 15.6072 3.09166 15.7258 3.36486 16.1286C3.46525 16.2766 3.56101 16.433 3.67035 16.6114C3.70469 16.6674 3.74045 16.7258 3.77803 16.7867C3.92821 17.0298 4.10045 17.3003 4.30113 17.5619C4.7063 18.0901 5.25795 18.6224 6.07627 18.8925C6.63853 19.0781 7.27404 19.1226 8.00037 19.011V22C8.00037 22.4418 8.35854 22.8 8.80036 22.8H15.2004C15.6422 22.8 16.0004 22.4418 16.0004 22V16.3C16.0004 15.7947 15.9784 15.3328 15.8362 14.9018C16.8959 14.6781 17.9513 14.2776 18.8206 13.5251C20.069 12.4444 20.8004 10.7591 20.8004 8.26V8.25742C20.7964 7.01139 20.3591 5.81115 19.5724 4.85816C19.7022 4.3872 19.7623 3.89885 19.7502 3.40866C19.7338 2.74906 19.587 2.09923 19.3178 1.49678C19.2214 1.28091 19.0345 1.11874 18.8071 1.05378L18.5874 1.82299C18.8071 1.05378 18.8049 1.05314 18.8041 1.05291L18.801 1.05203L18.7943 1.05024L18.7799 1.04648C18.7698 1.04392 18.7585 1.04125 18.7462 1.03854C18.7215 1.03314 18.6926 1.0276 18.6591 1.02246C18.5922 1.01218 18.5082 1.0036 18.4068 1.0009C18.2034 0.995456 17.933 1.01366 17.5919 1.08653C16.9646 1.22058 16.1017 1.53869 14.9726 2.23194Z" fill="white"/>
</svg>
