<svg xmlns="http://www.w3.org/2000/svg" width="24" height="24" viewBox="0 0 24 24">
  <defs>
    <style>
      .cls-1 {
        fill: #fff;
        fill-rule: evenodd;
      }
    </style>
  </defs>
  <path id="mail" class="cls-1" d="M1.9,1.628H17.55L22.3,1.654a2.383,2.383,0,0,1,1.069.574c0.757,0.756.626,1.948,0.626,3.442V18.631c0,1.35.034,2.392-.626,3.051-0.914.912-3.589,0.6-5.4,0.6H5.137c-2.326,0-4.254.351-4.955-1.356A5.2,5.2,0,0,1,.051,19.2V6.974c0-1.05-.179-3.239.13-3.99a2.273,2.273,0,0,1,1.1-1.174Zm0.13,1.017a1.428,1.428,0,0,0-.887.7A3.537,3.537,0,0,0,1.069,4.5V6.74L12,13,22.974,6.74V3.662a1.485,1.485,0,0,0-.626-0.913,4.552,4.552,0,0,0-1.565-.1H2.033ZM1.069,7.939v9.336c0,1.046-.193,3,0.261,3.6a1.928,1.928,0,0,0,1.617.391H20.992A2.677,2.677,0,0,0,22.583,21c0.632-.486.391-2.306,0.391-3.39V7.939H22.922a5.245,5.245,0,0,1-.782.443c-0.595.358-1.219,0.679-1.825,1.043-1.856,1.116-3.791,2.112-5.659,3.234-0.655.393-1.341,0.748-2.008,1.148a1.422,1.422,0,0,1-.678.365l-2.4-1.408Z"/>
</svg>
