<svg width="157" height="56" viewBox="0 0 157 56" fill="none" xmlns="http://www.w3.org/2000/svg">
<path fill-rule="evenodd" clip-rule="evenodd" d="M83.2188 36.2087V9.15452H101.472H103.666H108.054L115.139 28.2078L122.224 9.15452H128.65L117.687 36.401H112.423L104.679 17.143V17.1368L103.598 14.445H89.1416V19.934H99.415L101.547 25.2307H89.1478V30.912H103.865V36.2087H83.2188ZM152.603 32.5928C155.35 29.8762 156.73 26.5704 156.73 22.6816C156.73 18.768 155.368 15.456 152.646 12.7518C149.924 10.0476 146.493 8.69556 142.367 8.69556C138.234 8.69556 134.797 10.0538 132.044 12.7704C129.297 15.487 127.917 18.7928 127.917 22.6816C127.917 26.5952 129.278 29.9072 132 32.6114C134.722 35.3156 138.153 36.6677 142.28 36.6677C146.413 36.6739 149.85 35.3156 152.603 32.5928ZM136.469 28.7102C134.921 27.0604 134.144 25.0509 134.144 22.6816C134.144 20.2876 134.909 18.2718 136.431 16.6344C137.954 14.997 139.906 14.1783 142.28 14.1783C144.654 14.1783 146.618 15.0032 148.165 16.653C149.713 18.3028 150.49 20.3124 150.49 22.6816C150.49 25.0757 149.725 27.0914 148.203 28.7288C146.68 30.3662 144.728 31.1849 142.354 31.1849C139.98 31.1849 138.022 30.36 136.469 28.7102Z" fill="white"/>
<path fill-rule="evenodd" clip-rule="evenodd" d="M83.1689 42.9566V55.8077H84.9775V42.9566H83.1689ZM89.8376 42.9566V55.8077H91.6089V45.5182L99.4584 55.8015H101.136V42.9566H99.3714V52.9609L91.7456 42.9566H89.8376ZM104.946 42.9566L110.154 55.9069H112.025L117.233 42.9566H115.294L111.13 54.1455L106.966 42.9566H104.946ZM121.049 42.9566V55.8077H130.54V54.344H122.839V50.0582H129.526V48.5945H122.839V44.4142H130.44V42.9504H121.049V42.9566ZM136.002 55.479C136.929 55.8263 137.935 55.9999 139.017 55.9999C139.738 55.9999 140.384 55.9131 140.943 55.7395C141.49 55.572 141.969 55.3177 142.385 54.9828C142.777 54.6603 143.075 54.2819 143.268 53.8354C143.467 53.3826 143.566 52.8554 143.566 52.26C143.566 51.7452 143.492 51.3048 143.342 50.9327C143.199 50.5792 142.982 50.2753 142.696 50.0272C142.373 49.7481 141.963 49.4938 141.459 49.2643C140.931 49.0224 140.297 48.8053 139.557 48.6131C138.911 48.4456 138.377 48.2906 137.954 48.1541C137.5 47.9991 137.152 47.8564 136.916 47.72C136.307 47.3664 136.002 46.833 136.002 46.126C136.002 45.8345 136.065 45.5616 136.195 45.3135C136.319 45.0716 136.506 44.8607 136.742 44.6808C136.966 44.5134 137.233 44.3893 137.538 44.3087C137.823 44.2343 138.134 44.1971 138.476 44.1971C139.116 44.1971 139.781 44.3273 140.471 44.5878C140.968 44.7739 141.472 45.0282 141.994 45.3507L142.895 44.0482C141.627 43.1861 140.167 42.752 138.526 42.752C137.861 42.752 137.27 42.8388 136.742 43.0124C136.226 43.1799 135.773 43.4342 135.375 43.7691C134.989 44.0978 134.697 44.47 134.505 44.8979C134.312 45.3259 134.219 45.8159 134.219 46.3679C134.219 46.678 134.244 46.9571 134.287 47.2114C134.331 47.4595 134.393 47.6827 134.48 47.8812C134.561 48.0673 134.66 48.2409 134.791 48.396C134.915 48.5511 135.07 48.6937 135.25 48.8239C135.462 48.979 135.673 49.1093 135.878 49.2209C136.089 49.3325 136.307 49.438 136.537 49.5248C136.779 49.6178 137.053 49.7171 137.357 49.8039C137.656 49.8907 138.01 49.99 138.426 50.0954H138.433C139.023 50.2505 139.52 50.3931 139.924 50.542C140.353 50.697 140.689 50.8521 140.919 51.0071C141.192 51.187 141.403 51.4041 141.546 51.6584C141.702 51.9251 141.776 52.2166 141.776 52.5329C141.776 52.8554 141.702 53.1531 141.559 53.4198C141.416 53.6865 141.204 53.9098 140.931 54.0897C140.682 54.2509 140.396 54.375 140.073 54.4494C139.769 54.5238 139.433 54.561 139.066 54.561C138.265 54.561 137.475 54.3998 136.686 54.0835C136.096 53.8416 135.512 53.5129 134.927 53.0911L133.908 54.3129C134.567 54.8153 135.263 55.2061 136.002 55.479ZM150.601 45.1708V55.8015H152.41V44.5134H156.729V42.9504H146.288V44.5134H150.608V45.1708H150.601Z" fill="white"/>
<path fill-rule="evenodd" clip-rule="evenodd" d="M48.7937 12.9627L48.862 12.9565C49.5457 12.8821 50.2231 12.8387 50.8881 12.82H50.8943H50.9006H50.9068H50.9627H50.9751H50.9876H51H51.0124H51.0249H51.0311C51.1554 12.8138 51.3542 12.8076 51.578 12.7952H51.5904H51.5966H51.6091C51.8204 12.7828 52.0255 12.7642 52.2368 12.7394C59.2473 11.9889 65.0521 7.13259 66.0402 1.51335L66.0465 1.46993V1.46373V1.45753V1.45133V1.44512V1.43892V1.42652V1.42031V1.41411V1.40791V1.40171L66.0838 1.16602L66.1024 1.07919L66.1086 1.04818H66.1024L66.1086 1.02337V1.01097L66.1148 0.99236L66.121 0.979955L66.1273 0.961348L66.1335 0.948944L66.1397 0.930337L66.1459 0.917933L66.1521 0.899326L66.1583 0.886921C66.1645 0.874517 66.1645 0.868315 66.1708 0.85591L66.177 0.837303L66.1832 0.824899L66.1894 0.812494L66.1956 0.80009L66.2018 0.787686L66.2081 0.769079L66.2143 0.756674L66.2205 0.738068L66.2267 0.725663L66.2329 0.713259L66.2391 0.694652L66.2453 0.682247L66.2516 0.669843L66.2578 0.657438L66.264 0.645034C66.2702 0.638832 66.2764 0.626427 66.2826 0.620225L66.2888 0.60782L66.3013 0.595416L66.3137 0.583011L66.3199 0.570607L66.3324 0.558202L66.3448 0.545798L66.351 0.533393L66.3634 0.520989L66.3759 0.508584L66.3883 0.49618L66.4007 0.483775L66.4131 0.471371L66.4256 0.458966L66.4318 0.452764C66.438 0.446562 66.4442 0.44036 66.4442 0.434157C66.4504 0.427955 66.4567 0.421753 66.4629 0.409348L66.4753 0.396944L66.4877 0.384539L66.5002 0.372135L66.5126 0.365933L66.525 0.353528L66.5374 0.341124L66.5499 0.328719L66.5623 0.316315L66.5747 0.30391L66.5872 0.291506L66.5996 0.279101L66.612 0.272899L66.6245 0.260494L66.6369 0.254292L66.6493 0.241888C66.6555 0.235685 66.668 0.229483 66.6742 0.223281L66.6866 0.217079L66.7053 0.204674L66.7177 0.198472L66.7301 0.19227L66.7425 0.186067L66.755 0.179865L66.7674 0.173663L66.7798 0.167461L66.7923 0.161258L66.8109 0.148854L66.8233 0.142652L66.842 0.136449L66.8544 0.130247L66.8668 0.124045L66.8855 0.117843C66.8979 0.11164 66.9041 0.11164 66.9166 0.105438H66.9228C66.9352 0.099236 66.9414 0.099236 66.9476 0.0930337L66.9601 0.0868315L66.9787 0.0806292L66.9911 0.074427L67.0098 0.0682247L67.0222 0.0620225L67.0409 0.0558202L67.0533 0.049618L67.0719 0.0434157L67.0844 0.0372135L67.103 0.0310112L67.1154 0.024809L67.1341 0.0186067L67.1527 0.0124045C67.1652 0.0124045 67.1714 0.00620225 67.1838 0.00620225C67.1962 0.00620225 67.2025 0 67.2149 0H67.2273H67.246H67.2646H67.2832H67.3019H67.3205H67.333H67.3578H67.3703H67.3951H67.4075H67.4324H67.4448C67.4573 0 67.4697 0 67.4821 0C67.4946 0 67.507 0 67.5194 0H67.5256C67.5381 0 67.5443 0 67.5567 0H67.5629C67.5754 0 67.5878 0 67.594 0H67.6002C67.6126 0 67.6189 0 67.6313 0L67.6624 0.00620225H67.6686H67.6748L67.6997 0.0124045H67.7121L67.7369 0.0186067H67.7432C67.7556 0.0186067 67.7618 0.024809 67.7742 0.024809H67.7867L67.8053 0.0310112H67.8177C67.8302 0.0310112 67.8364 0.0372135 67.8488 0.0372135H67.855L67.8799 0.0434157L67.8923 0.049618C67.8985 0.049618 67.911 0.0558202 67.9172 0.0558202C67.9296 0.0558202 67.9358 0.0620225 67.9482 0.0682247H67.9545L67.9793 0.074427H67.9855C67.998 0.0806292 68.0042 0.0806292 68.0166 0.0868315H68.0228L68.0477 0.099236L68.0539 0.105438C68.0601 0.11164 68.0725 0.11164 68.0788 0.117843H68.085L68.1036 0.130247L68.1098 0.136449L68.1347 0.148854L68.1409 0.155056C68.1471 0.161258 68.1596 0.161258 68.1658 0.167461L68.1782 0.173663L68.1906 0.179865L68.2031 0.186067L68.2217 0.198472L68.2341 0.204674L68.2466 0.210876L68.259 0.217079L68.2714 0.223281C68.2839 0.229483 68.2901 0.235685 68.2963 0.241888L68.3025 0.24809L68.3149 0.260494L68.3274 0.266697L68.3398 0.279101L68.3584 0.291506L68.3709 0.30391L68.3833 0.310112L68.3957 0.322517L68.4144 0.341124L68.4268 0.347326L68.4392 0.35973L68.4517 0.372135L68.4579 0.378337C68.4765 0.390742 68.489 0.409348 68.5076 0.421753L68.5138 0.427955L68.5262 0.44036V0.446562C68.5387 0.458966 68.5449 0.465169 68.5511 0.477573L68.5573 0.483775L68.5697 0.502382L68.576 0.508584C68.5822 0.520989 68.5946 0.527191 68.6008 0.539596L68.607 0.545798L68.6195 0.564405L68.6257 0.570607C68.6381 0.589214 68.6505 0.60782 68.663 0.626427V0.632629C68.6816 0.657438 68.7003 0.68845 68.7127 0.713259V0.719461C68.7251 0.738068 68.7375 0.756674 68.7438 0.781483V0.787686L68.7562 0.806292C71.6213 5.7929 73.2621 11.5672 73.2621 17.726C73.2621 24.7656 71.1179 31.3027 67.451 36.7297C63.8464 42.5598 56.8048 47.0068 48.7067 47.8751C47.619 47.993 46.5501 48.0364 45.5122 48.024C46.5004 46.0021 47.1716 43.8003 47.4699 41.4868L47.4823 41.493C47.6626 39.4401 49.0734 37.7345 50.9689 37.1143C51.3543 36.9902 51.7271 36.8414 52.0938 36.6801C54.4866 35.7311 56.6556 34.4163 58.4828 32.8471L58.5077 32.8595C58.8122 32.5866 59.1043 32.3013 59.3902 32.016C59.4772 31.9292 59.5642 31.8485 59.645 31.7617L59.6575 31.7493C59.732 31.6749 59.8066 31.6005 59.875 31.526L59.8874 31.5136C60.0366 31.3586 60.1795 31.2035 60.3225 31.0422L60.3473 31.0174C60.4903 30.8624 60.627 30.7011 60.7575 30.5399L60.7824 30.5089C60.8445 30.4344 60.9067 30.36 60.9688 30.2794L60.9813 30.267C61.0496 30.1863 61.1118 30.0995 61.1739 30.0189L61.1863 30.0003C61.2423 29.9258 61.3044 29.8452 61.3604 29.7708L61.3852 29.7398L61.4039 29.7212C64.213 26.0743 65.9035 21.6893 65.9035 17.174C65.9035 16.3615 65.8476 15.5614 65.7419 14.7924C62.5164 19.0533 57.5754 22.204 52.0379 23.0227L51.9944 23.0289H51.9882H51.9757C51.4661 23.1034 50.9627 23.153 50.4655 23.184C50.1423 23.2088 49.844 23.2212 49.6078 23.2336C49.4587 23.2398 49.3033 23.246 49.1479 23.2522H49.2225C49.0796 23.2646 48.9366 23.277 48.7875 23.2894C48.2468 23.3453 47.7123 23.4445 47.1902 23.5809C39.7757 25.0013 33.7969 30.4344 31.603 37.5236C31.5782 37.598 31.5471 37.6725 31.516 37.7407C31.4539 37.8709 31.3731 37.9888 31.2799 38.0942L31.2737 38.1004C31.255 38.1252 31.2301 38.15 31.2115 38.1686L31.1866 38.1934L31.1618 38.2182L31.1431 38.2369L31.1369 38.2431L31.1121 38.2617L31.0872 38.2803L31.0623 38.2989L31.0375 38.3175L31.0313 38.3237L31.0126 38.3361L30.9878 38.3547H30.9815L30.9629 38.3671L30.9567 38.3733L30.9318 38.3919L30.907 38.4105L30.8883 38.4229L30.8821 38.4291L30.8697 38.4353L30.8572 38.4415L30.8386 38.4229L30.82 38.4353L30.7889 38.4539L30.7578 38.4725L30.7329 38.4849L30.7267 38.4912L30.7143 38.4974H30.7081L30.6832 38.5098L30.6708 38.516L30.6646 38.5222L30.6584 38.5284L30.6335 38.5408L30.6024 38.5532H30.5962L30.5776 38.547H30.5714L30.5465 38.5532L30.5279 38.5594L30.5216 38.5656H30.5154L30.4843 38.578L30.4533 38.5904H30.4471L30.4222 38.5966H30.416L30.3911 38.609L30.3725 38.6152L30.3538 38.6214L30.3228 38.6276L30.2917 38.6338H30.2855H30.273L30.2482 38.64H30.2295H30.2233L30.1985 38.6462H30.1922L30.1612 38.6524H30.155L30.1177 38.6586H30.1114H30.099H30.0742H30.0617H30.0307H30.0244H30.0182H29.9809H29.9374H29.9001H29.8939H29.8815H29.8504H29.838H29.8069H29.7945L29.7634 38.6524H29.751L29.7199 38.6462H29.7137H29.7013L29.6702 38.64H29.6578L29.6329 38.6338L29.6143 38.6276L29.5832 38.6214L29.5521 38.6152L29.5397 38.609H29.5335L29.5086 38.6028H29.5024H29.4962L29.4651 38.5966L29.4402 38.5904L29.4278 38.5842L29.4092 38.578H29.4029L29.3781 38.5718L29.347 38.5594H29.3408L29.3159 38.547H29.3097L29.2911 38.5408H29.2849L29.26 38.5284H29.2538L29.2227 38.516H29.2165L29.2103 38.5098L29.1854 38.4974L29.1668 38.4912H29.1606L29.1357 38.4787H29.1295L29.1046 38.4663H29.0984L29.0735 38.4539L29.0611 38.4477L29.0487 38.4415L29.0363 38.4353L29.0176 38.4229L28.9928 38.4043L28.9865 38.3981H28.9803L28.9555 38.3795H28.9492L28.9368 38.3733L28.9306 38.3671L28.912 38.3547L28.8871 38.3361L28.8809 38.3299L28.8747 38.3237L28.8498 38.3051L28.8374 38.2989L28.8125 38.2741L28.7877 38.2555L28.769 38.2369L28.7628 38.2307L28.7504 38.2182L28.7255 38.1934L28.7069 38.1686L28.7006 38.1624L28.6882 38.1438L28.682 38.1376L28.6696 38.1252L28.6634 38.119L28.6447 38.0942L28.6261 38.0694L28.6136 38.0508L28.6074 38.0446L28.595 38.026L28.5763 38.0012L28.5577 37.9764L28.5515 37.9702L28.5391 37.9516L28.5266 37.9329L28.5204 37.9267L28.5018 37.9019L28.4831 37.8771L28.4769 37.8709L28.4645 37.8523L28.4583 37.8461L28.4458 37.8275L28.4334 37.8027L28.421 37.7779L28.4148 37.7655L28.4085 37.7593L28.3961 37.7345V37.7283L28.3899 37.7221L28.3775 37.6973L28.365 37.6725C28.3464 37.6228 28.3277 37.5732 28.3091 37.5236C27.756 36.0351 27.4639 34.4287 27.4639 32.7355C27.4887 23.0538 37.0287 14.2218 48.7937 12.9627L48.8558 12.9193L48.7937 12.9627ZM66.4753 0.434157L66.4877 0.415551C66.4815 0.421753 66.4815 0.427955 66.4753 0.434157Z" fill="#1585A6"/>
<path fill-rule="evenodd" clip-rule="evenodd" d="M18.1415 50.5917C16.5008 49.8722 14.9222 49.0287 13.4244 48.0798L13.4119 48.0736L13.3995 48.0612L13.3809 48.0488C13.0701 47.8441 12.3057 47.2921 12.1627 47.1866C4.76067 41.4682 0 32.5245 0 22.4645C0 17.6577 1.08762 13.1115 3.0267 9.04282C3.18828 8.7017 3.35609 8.36678 3.53011 8.03186L3.54254 8.00705L3.54875 7.98844L3.55497 7.98224L3.56118 7.96983L3.57361 7.95123L3.57983 7.93882V7.93262C3.59226 7.91401 3.59847 7.90161 3.6109 7.883L3.61712 7.8768L3.62955 7.8644L3.64198 7.84579L3.65441 7.83339L3.66062 7.82718L3.67305 7.81478C3.67927 7.80237 3.6917 7.79617 3.69791 7.78377C3.71034 7.77136 3.71656 7.76516 3.72899 7.75276L3.74142 7.73415C3.76006 7.71554 3.77871 7.69694 3.79735 7.67833L3.80357 7.67213L3.816 7.66592L3.83464 7.65352C3.84707 7.64112 3.85329 7.63491 3.86572 7.62871L3.88436 7.61631L3.90301 7.6039L3.91544 7.5915L3.92787 7.57909L3.94651 7.56669L3.95894 7.56049L3.96516 7.55428L3.97759 7.54808L3.99623 7.53568H4.00245H4.00866L4.02731 7.52947L4.03974 7.52327L4.05838 7.51087L4.07703 7.50467L4.08946 7.49846L4.1081 7.48606L4.12675 7.47986L4.13918 7.47365L4.15782 7.46745L4.18268 7.45505H4.1889L4.20754 7.44885H4.21376H4.21997L4.23862 7.44264L4.25105 7.43644L4.26969 7.43024H4.27591L4.29455 7.42404L4.3132 7.41783L4.35049 7.37442H4.3567L4.38156 7.36822H4.38778H4.39399L4.41885 7.36201L4.44371 7.35581L4.47479 7.34961H4.48722H4.50586H4.51208H4.51829H4.54315H4.54937H4.57423H4.58044H4.6053H4.63638H4.64259H4.67366H4.70474H4.73581H4.76689H4.7731H4.79796L4.82282 7.35581H4.82904L4.8539 7.36201H4.86011L4.88497 7.36822H4.89119L4.91605 7.37442L4.94091 7.38062H4.95334H4.95955L4.9782 7.38682H4.98441H4.99063L5.01549 7.39303H5.02792L5.04656 7.39923H5.05278H5.05899L5.07764 7.40543L5.09007 7.41163H5.11493H5.12114L5.146 7.41783L5.17086 7.43024L5.18329 7.43644L5.18951 7.44264L5.20194 7.44885L5.22058 7.45505H5.2268H5.23301L5.25166 7.46125L5.26409 7.46745L5.28273 7.47986L5.29516 7.48606H5.30138L5.31381 7.49226L5.33245 7.50467L5.33867 7.51087L5.3511 7.52327L5.36353 7.52947L5.38217 7.54188L5.3946 7.54808L5.40703 7.56049L5.42568 7.57289L5.43811 7.58529L5.45054 7.5977L5.46918 7.6101L5.48161 7.62251H5.48783L5.50026 7.63491L5.53133 7.65972L5.54376 7.67213L5.54998 7.67833C5.55619 7.68453 5.56862 7.69073 5.57484 7.70314C5.58727 7.71554 5.5997 7.72795 5.61213 7.74655L5.61834 7.75276L5.63077 7.76516L5.63699 7.77136C5.6432 7.77756 5.64942 7.78997 5.66185 7.79617L5.67428 7.80858L5.68671 7.82718L5.69914 7.83959L5.71157 7.85819L5.724 7.8768L5.73643 7.89541C5.74886 7.91401 5.76129 7.92642 5.7675 7.94503L5.77993 7.96363H5.78615C7.60714 10.7484 10.6711 12.6463 14.1888 12.8696C14.1888 12.8696 14.3628 12.882 14.5866 12.8944L14.6611 12.9006H14.6736L14.8973 12.913H14.9035C14.9719 12.913 15.034 12.9192 15.1024 12.9192H15.1086H15.1148H15.121H15.1273H15.1335H15.1397H15.1459H15.1583H15.1646H15.1832H15.1894H15.2018H15.2081H15.2143H15.2205C15.2578 12.9192 15.2951 12.9254 15.3261 12.9254H15.3324H15.3572C19.0986 13.1425 22.5169 14.538 25.2515 16.746C26.3453 17.6764 27.0414 19.0657 27.0414 20.6162C27.0414 21.4969 26.8176 22.328 26.4199 23.0537L26.4323 23.0475C25.1023 25.3237 24.3379 27.9721 24.3379 30.8003C24.3379 31.1352 24.3503 31.4701 24.3689 31.7989C22.4112 28.6357 19.254 26.2913 15.5374 25.3857C13.2317 24.5795 11.1932 23.2026 9.58971 21.4287C9.58971 21.5776 9.5835 21.7326 9.5835 21.8815C9.5835 30.7941 14.5679 38.5469 21.9078 42.5101L22.2745 42.721C22.3118 42.7458 22.4858 42.8389 22.6039 42.8947H22.6101L22.6163 42.9009L22.6225 42.9071H22.6287L22.635 42.9133H22.6412H22.6474L22.6536 42.9195C22.8463 43.0125 23.0451 43.0994 23.244 43.18C24.0458 43.5025 24.9034 43.7196 25.7984 43.8188H25.8108L25.8543 43.825H25.873L25.9227 43.8312H25.9289C25.9786 43.8374 26.0283 43.8436 26.0843 43.8436H26.1091H26.1402H26.1775H26.2148H26.221L26.2769 43.8498H26.2832L26.3453 43.856H26.3577H26.4137H26.4323H26.4882H26.5007H26.5628H26.569H26.6374H26.656H26.7058H26.7244H26.7741H26.7928H26.8611C26.9357 43.856 27.0103 43.856 27.0787 43.856H27.0849C27.1532 43.856 27.2278 43.8498 27.2962 43.8498H27.3086C27.377 43.8436 27.4454 43.8436 27.5137 43.8374H27.5324C27.6007 43.8312 27.6629 43.825 27.7312 43.8188H27.7561C27.8182 43.8126 27.8804 43.8064 27.9425 43.8002L27.9861 43.794C28.042 43.7878 28.0979 43.7816 28.1539 43.7754L28.2098 43.7692C28.2595 43.763 28.3092 43.7568 28.359 43.7444C28.3838 43.7382 28.4087 43.7382 28.4335 43.732C28.446 43.732 28.4646 43.7258 28.477 43.7258C28.8313 43.67 29.1793 43.5893 29.5149 43.4963L29.5522 43.4839L29.5771 43.4777H29.5833L29.6206 43.4653H29.6268L29.6641 43.4529H29.6703L29.7076 43.4405L29.7449 43.4281H29.7511L29.7946 43.4157C29.8381 43.4033 29.8816 43.3909 29.9251 43.3723H29.9313L29.9562 43.3661C30.0059 43.3475 30.0619 43.3288 30.1116 43.3102H30.1178L30.1427 43.2978H30.1489C30.1986 43.2792 30.2421 43.2606 30.2918 43.242C30.3167 43.2358 30.3353 43.2234 30.3602 43.2172C30.3975 43.2048 30.441 43.1862 30.4783 43.1738C30.5093 43.1614 30.5404 43.149 30.5653 43.1366C30.5963 43.1242 30.6336 43.1118 30.6647 43.0932C30.6958 43.0808 30.7331 43.0622 30.7642 43.0497C30.7952 43.0373 30.8263 43.0249 30.8512 43.0125C30.8884 42.9939 30.9195 42.9815 30.9568 42.9629C30.9817 42.9505 31.0127 42.9381 31.0376 42.9257C31.0749 42.9071 31.1122 42.8885 31.1495 42.8699C31.1743 42.8575 31.1992 42.8451 31.2178 42.8327C31.2551 42.8141 31.2986 42.7955 31.3359 42.7706L31.3981 42.7396C33.9587 41.3875 35.8231 38.9253 36.339 36.004H36.3514C36.6062 34.1557 37.3955 32.4749 38.5702 31.129C38.5888 31.1104 38.6012 31.0918 38.6199 31.0732L38.6385 31.0546C39.0176 30.6328 39.5646 30.3662 40.1736 30.3662C40.9754 30.3662 41.6714 30.8251 42.007 31.495V31.4888C43.48 34.317 44.3066 37.2879 44.3066 40.2091C44.3066 50.0831 34.8163 55.5473 23.1073 52.4151C21.4355 51.981 19.7512 51.3546 18.1415 50.5917ZM3.69791 7.78377L3.72899 7.75276C3.71656 7.76516 3.71034 7.77136 3.69791 7.78377Z" fill="#04B3C8"/>
</svg>
