<svg width="196" height="272" viewBox="0 0 196 272" fill="none" xmlns="http://www.w3.org/2000/svg">
<path d="M167.701 123.374C174.84 115.841 179.216 105.683 179.216 94.4657V89.4764C179.216 62.9078 157.686 41.3692 131.127 41.3692H123.858V0H98V41.3692H78.1726V0H52.3148V41.3692H0V69.3115H33.5509V203.883H4.60435L0 231.825H52.3148V272H78.1726V231.825H98V272H123.858V231.825H141.265C171.495 231.825 196 207.311 196 177.07V171.31C196 150.648 184.579 132.68 167.701 123.374ZM78.1971 66.2014H114.189C120.566 66.2014 126.323 68.7816 130.467 72.9515C134.635 77.1215 137.215 82.8811 137.215 89.2604C137.215 101.974 126.922 112.295 114.189 112.295H78.1971V66.2014ZM119.922 204.299H78.1726V144.085H119.922C128.234 144.085 135.764 147.448 141.2 152.906C146.656 158.344 150.017 165.876 150.017 174.192C150.017 190.823 136.546 204.299 119.922 204.299Z" fill="#9CD6DF"/>
</svg>
