<svg width="209" height="226" viewBox="0 0 209 226" fill="none" xmlns="http://www.w3.org/2000/svg">
<path d="M184.27 219.357C160.632 233.028 130.416 224.923 116.766 201.25C108.287 186.544 108.198 169.299 115.008 155.069C116.944 151.025 116.79 146.297 114.557 142.414C112.141 138.21 107.664 135.623 102.819 135.623H101.394C96.8396 135.623 92.6714 137.972 90.0826 141.725C80.066 156.252 62.473 165.142 43.0098 162.698C20.649 159.891 2.79481 141.707 0.312919 119.27C-2.98836 89.4008 20.269 64.122 49.4045 64.122C66.3859 64.122 81.3604 72.691 90.2489 85.7437C92.7011 89.3414 96.6673 91.601 101.02 91.601H101.809C106.393 91.601 110.632 89.1511 112.924 85.1728L114.029 83.2521C116.154 79.5712 116.327 75.0756 114.462 71.2519C107.497 56.9683 107.521 39.5747 116.059 24.7559C129.71 1.08263 159.926 -7.0225 183.581 6.63078C207.219 20.3019 215.311 50.5877 201.661 74.255C193.188 88.9311 178.338 97.6368 162.645 98.8439C158.168 99.1888 154.143 101.692 151.904 105.587C149.482 109.792 149.482 114.971 151.904 119.175L152.611 120.4C154.855 124.289 158.869 126.787 163.34 127.138C179.045 128.357 193.889 137.056 202.367 151.744C216.018 175.418 207.925 205.686 184.27 219.357Z" fill="#9CD6DF"/>
</svg>
