<svg width="254" height="199" viewBox="0 0 254 199" fill="none" xmlns="http://www.w3.org/2000/svg">
<g clip-path="url(#clip0_815_1920)">
<path d="M40.8128 152.06C42.346 150.526 44.4542 149.632 46.6902 149.632H249.461C253.166 149.632 255.019 154.104 252.4 156.723L212.344 196.779C210.811 198.312 208.702 199.207 206.466 199.207H3.69567C-0.00965431 199.207 -1.86232 194.735 0.756965 192.116L40.8128 152.06Z" fill="#9CD6DF"/>
<path d="M40.8128 2.50526C42.4099 0.972025 44.5181 0.0776367 46.6902 0.0776367H249.461C253.166 0.0776367 255.019 4.54958 252.4 7.16886L212.344 47.2247C210.811 48.7579 208.702 49.6523 206.466 49.6523H3.69567C-0.00965431 49.6523 -1.86232 45.1804 0.756965 42.5611L40.8128 2.50526Z" fill="#9CD6DF"/>
<path d="M212.344 76.8034C210.811 75.2701 208.702 74.3757 206.466 74.3757H3.69567C-0.00965431 74.3757 -1.86232 78.8477 0.756965 81.467L40.8128 121.523C42.346 123.056 44.4542 123.95 46.6902 123.95H249.461C253.166 123.95 255.019 119.478 252.4 116.859L212.344 76.8034Z" fill="#9CD6DF"/>
</g>
<defs>
<clipPath id="clip0_815_1920">
<rect width="254" height="199" fill="white"/>
</clipPath>
</defs>
</svg>
