<svg width="174" height="194" viewBox="0 0 174 194" fill="none" xmlns="http://www.w3.org/2000/svg">
<path d="M87.0145 194C73.3421 194 61.084 191.765 50.2403 187.294C39.6323 182.823 30.5566 176.352 23.0132 167.88C15.7055 159.409 10.0479 149.173 6.04047 137.172C2.03302 125.171 0.0292969 111.759 0.0292969 96.934C0.0292969 82.1094 2.03302 68.6966 6.04047 56.6957C10.0479 44.6949 15.7055 34.5764 23.0132 26.3405C30.5566 17.8693 39.6323 11.3983 50.2403 6.92735C61.084 2.45644 73.3421 0.220978 87.0145 0.220978C100.687 0.220978 112.827 2.45644 123.435 6.92735C134.279 11.3983 143.355 17.8693 150.662 26.3405C158.206 34.5764 163.981 44.6949 167.989 56.6957C171.996 68.6966 174 82.1094 174 96.934C174 111.759 171.996 125.171 167.989 137.172C163.981 149.173 158.206 159.409 150.662 167.88C143.355 176.352 134.279 182.823 123.435 187.294C112.827 191.765 100.687 194 87.0145 194ZM87.0145 152.703C97.3868 152.703 105.402 149.526 111.059 143.173C116.717 136.819 119.546 127.76 119.546 115.994V78.2267C119.546 66.4612 116.717 57.4017 111.059 51.0483C105.402 44.6948 97.3868 41.5181 87.0145 41.5181C76.6423 41.5181 68.6274 44.6948 62.9698 51.0483C57.3123 57.4017 54.4835 66.4612 54.4835 78.2267V115.994C54.4835 127.76 57.3123 136.819 62.9698 143.173C68.6274 149.526 76.6423 152.703 87.0145 152.703Z" fill="#71C4D0" fill-opacity="0.7"/>
</svg>
