<svg width="164" height="35" viewBox="0 0 164 35" fill="none" xmlns="http://www.w3.org/2000/svg">
<g clip-path="url(#clip0_1202_284)">
<path d="M8.82527 34.0658H0.674805V1.05273H8.82527V17.5593V34.0658Z" fill="#EB712A"/>
<path d="M24.7191 20.7522V34.0657H10.2891L24.7191 20.7522Z" fill="#0E1121"/>
<path d="M24.7191 14.3662V1.05273H10.2891L24.7191 14.3662Z" fill="#0E1121"/>
<path d="M63.843 28.6031V32.2593H45.7549V4.74658H63.6163V8.44043H49.926V16.8916H60.8058V20.5477H49.926V28.6031H63.843Z" fill="#0E1121"/>
<path d="M82.9655 32.3076H78.5434V32.0707L74.5127 25.6953L70.4793 32.0626V32.3076H66.1436L69.8719 26.5299L72.4312 22.4026L66.319 12.686H70.6386L74.5127 18.9349L78.3706 12.686H82.7496L76.6374 22.3945L79.2372 26.5218L82.9655 32.3076Z" fill="#0E1121"/>
<path d="M104.372 22.4323C104.372 27.895 99.6444 32.2188 93.8805 32.2188C88.0707 32.2188 83.3516 27.895 83.3516 22.4323C83.3516 17.01 88.0788 12.6458 93.8805 12.6458C99.6444 12.6538 104.372 17.01 104.372 22.4323ZM100.557 22.4323C100.557 19.0131 97.5656 16.2238 93.8805 16.2238C90.1495 16.2238 87.1582 19.0131 87.1582 22.4323C87.1582 25.8515 90.1495 28.6434 93.8805 28.6434C97.5656 28.6434 100.557 25.8461 100.557 22.4323Z" fill="#0E1121"/>
<path d="M110.646 15.0042C112.581 13.5472 114.941 12.7606 117.366 12.7642V16.2238C113.586 16.2238 110.992 19.0534 110.646 22.3946V32.2592H106.742V12.5676H110.646V15.0042Z" fill="#0E1121"/>
<path d="M138.963 2.78125V32.2189H135.062V29.9412C133.166 31.4155 130.832 32.2171 128.428 32.2189C122.619 32.2189 117.899 27.7389 117.899 22.3139C117.899 16.8889 122.624 12.5274 128.428 12.5274C130.818 12.488 133.153 13.2461 135.062 14.6812V2.78125H138.963ZM135.062 23.1539V21.4901C134.716 18.4236 131.897 16.0651 128.428 16.0651C124.743 16.0651 121.757 18.8462 121.757 22.3139C121.757 25.7816 124.749 28.5655 128.434 28.5655C131.897 28.5655 134.716 26.207 135.062 23.1539Z" fill="#0E1121"/>
<path d="M162.658 22.4726C162.673 23.0537 162.615 23.6344 162.485 24.2011H145.577C146.357 26.8745 148.957 28.7619 151.992 28.7619C153.281 28.7953 154.551 28.4386 155.634 27.7388H161.011C159.146 30.5684 155.809 32.3372 151.992 32.3372C146.228 32.3372 141.414 27.9757 141.414 22.4726C141.414 16.9695 146.228 12.5676 151.994 12.5676C157.888 12.5676 162.658 16.9615 162.658 22.4726ZM145.577 20.7038H158.495C157.715 18.1084 155.072 16.1538 151.994 16.1538C150.577 16.128 149.189 16.556 148.034 17.3749C146.879 18.1939 146.018 19.3606 145.577 20.7038V20.7038Z" fill="#0E1121"/>
</g>
<defs>
<clipPath id="clip0_1202_284">
<rect width="163.333" height="35" fill="white"/>
</clipPath>
</defs>
</svg>
