<svg width="220" height="34" viewBox="0 0 220 34" fill="none" xmlns="http://www.w3.org/2000/svg">
<path d="M18.5905 1.03095C17.1783 -0.34365 14.8877 -0.34365 13.4747 1.03095C12.0618 2.40565 12.0618 4.63337 13.4747 6.00797L23.152 15.4227L25.4272 13.2093C26.9963 11.6834 26.9963 9.20813 25.4272 7.68169L18.5905 1.03095Z" fill="url(#paint0_linear_1203_330)"/>
<path d="M9.82721 5.25781L28.7336 23.9398L23.5186 29.0929L4.6123 10.4108L9.82721 5.25781Z" fill="url(#paint1_linear_1203_330)"/>
<path d="M9.83305 18.5771L19.5152 27.8003C20.9266 29.2187 20.9266 31.5182 19.5152 32.936C18.1044 34.3545 15.8164 34.3545 14.4049 32.936L7.56029 25.983C5.99292 24.4078 5.99292 22.4365 7.56029 20.8613L9.83305 18.5771Z" fill="url(#paint2_linear_1203_330)"/>
<path d="M32.6604 14.032C31.2741 12.615 29.0287 12.615 27.6432 14.032C26.2583 15.4498 26.2583 17.7474 27.6432 19.1652L30.1518 21.7322L32.6604 19.1652C34.0452 17.7474 34.0452 15.4498 32.6604 14.032Z" fill="url(#paint3_linear_1203_330)"/>
<path d="M3.54729 12.2681L6.05531 14.8344C7.4409 16.2521 7.4409 18.5499 6.05531 19.9676C4.67039 21.3853 2.42427 21.3853 1.03869 19.9676C-0.346228 18.5499 -0.346228 16.2521 1.03869 14.8344L3.54729 12.2681Z" fill="url(#paint4_linear_1203_330)"/>
<path d="M46.0332 26.1739V8.32383H49.8749L56.3198 18.9064L53.5649 18.8809L60.0856 8.32383H63.7758V26.1739H59.6054V20.6149C59.6054 19.0848 59.6392 17.7079 59.7065 16.4839C59.7907 15.2598 59.9256 14.0443 60.1109 12.8373L60.5911 14.1633L55.6879 21.8389H54.0199L49.2177 14.2144L49.6979 12.8373C49.8833 13.9763 50.0096 15.1494 50.0771 16.3564C50.1613 17.5464 50.2035 18.9659 50.2035 20.6149V26.1739H46.0332ZM72.7459 26.4033C71.6174 26.4033 70.6067 26.1059 69.7137 25.5109C68.8372 24.8989 68.1382 24.0658 67.616 23.0119C67.0928 21.9409 66.8321 20.7339 66.8321 19.3909C66.8321 18.0138 67.0928 16.7984 67.616 15.7443C68.1382 14.6904 68.8536 13.8659 69.7639 13.2709C70.6733 12.6589 71.7101 12.3529 72.8724 12.3529C73.5124 12.3529 74.0945 12.4464 74.6168 12.6334C75.1555 12.8204 75.6275 13.0838 76.032 13.4239C76.4365 13.7468 76.7812 14.1293 77.0679 14.5713C77.3546 14.9964 77.565 15.4553 77.7002 15.9484L76.8661 15.8464V12.6334H80.8849V26.1739H76.7898V22.9099L77.7002 22.8844C77.565 23.3604 77.3459 23.8109 77.0428 24.2359C76.7396 24.6609 76.3689 25.0349 75.9307 25.3578C75.4924 25.6809 75.0039 25.9359 74.4652 26.1229C73.9256 26.3099 73.3531 26.4033 72.7459 26.4033ZM73.858 22.9608C74.4817 22.9608 75.0213 22.8164 75.476 22.5274C75.9307 22.2383 76.285 21.8303 76.5369 21.3034C76.7898 20.7593 76.9163 20.1218 76.9163 19.3909C76.9163 18.6599 76.7898 18.0309 76.5369 17.5038C76.285 16.9599 75.9307 16.5434 75.476 16.2544C75.0213 15.9484 74.4817 15.7954 73.858 15.7954C73.2518 15.7954 72.7208 15.9484 72.2661 16.2544C71.8279 16.5434 71.4823 16.9599 71.2293 17.5038C70.9774 18.0309 70.8509 18.6599 70.8509 19.3909C70.8509 20.1218 70.9774 20.7593 71.2293 21.3034C71.4823 21.8303 71.8279 22.2383 72.2661 22.5274C72.7208 22.8164 73.2518 22.9608 73.858 22.9608ZM90.5946 32.0389C89.4989 32.0389 88.4042 31.8774 87.3085 31.5544C86.2302 31.2314 85.3546 30.8149 84.6798 30.3049L86.095 27.4489C86.4493 27.6869 86.8364 27.8909 87.2583 28.0609C87.6965 28.2479 88.1512 28.3924 88.6233 28.4944C89.0944 28.5964 89.5751 28.6474 90.0636 28.6474C90.9228 28.6474 91.6217 28.5199 92.1614 28.2649C92.7 28.0098 93.1045 27.6189 93.3748 27.0919C93.6442 26.5819 93.7783 25.9359 93.7783 25.1539V22.8844L94.5622 23.0119C94.4445 23.5729 94.1491 24.0829 93.678 24.5418C93.2223 25.0009 92.6585 25.3749 91.9847 25.6639C91.3099 25.9359 90.5946 26.0719 89.8358 26.0719C88.6233 26.0719 87.5363 25.7914 86.5758 25.2304C85.6316 24.6524 84.8825 23.8619 84.3265 22.8589C83.7868 21.8389 83.5175 20.6659 83.5175 19.3398C83.5175 17.9798 83.7868 16.7813 84.3265 15.7443C84.8651 14.6904 85.6065 13.8659 86.5507 13.2709C87.4938 12.6589 88.5557 12.3529 89.7354 12.3529C90.2403 12.3529 90.721 12.4124 91.1757 12.5314C91.6478 12.6503 92.0774 12.8118 92.4645 13.0159C92.869 13.2029 93.2223 13.4323 93.5264 13.7044C93.8459 13.9594 94.0988 14.2399 94.2842 14.5458C94.4869 14.8518 94.6211 15.1663 94.6887 15.4893L93.8546 15.6934L94.0062 12.6334H97.8483V25.0773C97.8483 26.1823 97.6794 27.1598 97.3425 28.0098C97.022 28.8769 96.5422 29.6079 95.9022 30.2029C95.2785 30.8149 94.5197 31.2739 93.6268 31.5799C92.7338 31.8859 91.7231 32.0389 90.5946 32.0389ZM90.695 22.9099C91.3524 22.9099 91.9171 22.7654 92.3892 22.4764C92.8777 22.1704 93.2484 21.7539 93.5003 21.2268C93.7706 20.6999 93.9048 20.0794 93.9048 19.3653C93.9048 18.6514 93.7706 18.0309 93.5003 17.5038C93.2484 16.9599 92.8777 16.5434 92.3892 16.2544C91.9171 15.9484 91.3524 15.7954 90.695 15.7954C90.0549 15.7954 89.4989 15.9484 89.0268 16.2544C88.5557 16.5434 88.185 16.9599 87.9147 17.5038C87.6628 18.0309 87.5363 18.6514 87.5363 19.3653C87.5363 20.0794 87.6628 20.6999 87.9147 21.2268C88.185 21.7539 88.5557 22.1704 89.0268 22.4764C89.4989 22.7654 90.0549 22.9099 90.695 22.9099ZM101.587 26.1739V12.6334H105.631V26.1739H101.587ZM103.609 9.95586C102.851 9.95586 102.252 9.77732 101.815 9.42035C101.393 9.04634 101.183 8.51931 101.183 7.83936C101.183 7.2273 101.402 6.72579 101.84 6.33483C102.278 5.94387 102.867 5.74829 103.609 5.74829C104.367 5.74829 104.957 5.9353 105.378 6.30931C105.799 6.66628 106.01 7.17636 106.01 7.83936C106.01 8.46837 105.791 8.97835 105.353 9.36932C104.932 9.76038 104.35 9.95586 103.609 9.95586ZM115.32 26.4289C114.022 26.4289 112.86 26.1229 111.832 25.5109C110.804 24.8989 109.987 24.0658 109.38 23.0119C108.791 21.9409 108.495 20.7339 108.495 19.3909C108.495 18.0478 108.791 16.8493 109.38 15.7954C109.987 14.7243 110.804 13.8828 111.832 13.2709C112.86 12.6589 114.022 12.3529 115.32 12.3529C116.516 12.3529 117.611 12.5654 118.605 12.9903C119.616 13.4154 120.417 14.0103 121.006 14.7754L118.807 17.4274C118.572 17.1553 118.294 16.9003 117.973 16.6624C117.653 16.4244 117.299 16.2374 116.911 16.1014C116.524 15.9653 116.12 15.8973 115.699 15.8973C115.058 15.8973 114.494 16.0503 114.006 16.3564C113.516 16.6454 113.138 17.0534 112.867 17.5804C112.598 18.1073 112.463 18.7108 112.463 19.3909C112.463 20.0369 112.598 20.6234 112.867 21.1504C113.154 21.6774 113.542 22.0939 114.031 22.3999C114.519 22.7059 115.075 22.8589 115.699 22.8589C116.136 22.8589 116.541 22.8078 116.911 22.7059C117.282 22.5868 117.619 22.4169 117.923 22.1959C118.243 21.9749 118.538 21.7028 118.807 21.3799L120.98 24.0574C120.408 24.7884 119.608 25.3664 118.58 25.7914C117.569 26.2164 116.482 26.4289 115.32 26.4289ZM137.591 26.4289C136.429 26.4289 135.376 26.2929 134.433 26.0208C133.506 25.7319 132.681 25.3239 131.956 24.7969C131.232 24.2529 130.583 23.6154 130.009 22.8844L132.613 19.9008C133.455 21.0398 134.298 21.8049 135.14 22.1959C136 22.5868 136.884 22.7824 137.794 22.7824C138.249 22.7824 138.662 22.7229 139.033 22.6039C139.403 22.4849 139.689 22.3149 139.892 22.0939C140.094 21.8558 140.195 21.5669 140.195 21.2268C140.195 20.9718 140.127 20.7424 139.993 20.5383C139.875 20.3344 139.707 20.1558 139.487 20.0028C139.268 19.8499 139.008 19.7138 138.704 19.5949C138.4 19.4588 138.081 19.3484 137.744 19.2634C137.406 19.1614 137.061 19.0764 136.707 19.0084C135.73 18.7874 134.879 18.5153 134.155 18.1924C133.43 17.8694 132.824 17.4783 132.335 17.0194C131.863 16.5434 131.51 16.0079 131.273 15.4129C131.038 14.8008 130.92 14.1209 130.92 13.3728C130.92 12.5739 131.096 11.8429 131.45 11.1799C131.821 10.4998 132.31 9.92186 132.916 9.44587C133.54 8.95284 134.256 8.57882 135.064 8.32383C135.873 8.05179 136.716 7.91582 137.591 7.91582C138.755 7.91582 139.749 8.04332 140.574 8.29831C141.416 8.53635 142.133 8.88485 142.722 9.3438C143.329 9.80284 143.843 10.3553 144.264 11.0013L141.61 13.5769C141.257 13.1349 140.869 12.7693 140.448 12.4804C140.043 12.1914 139.605 11.9704 139.133 11.8174C138.678 11.6643 138.206 11.5879 137.718 11.5879C137.213 11.5879 136.775 11.6559 136.404 11.7918C136.05 11.9109 135.772 12.0893 135.57 12.3273C135.368 12.5483 135.267 12.8204 135.267 13.1434C135.267 13.4323 135.351 13.6789 135.52 13.8828C135.688 14.0869 135.916 14.2739 136.201 14.4438C136.488 14.5968 136.817 14.7328 137.188 14.8518C137.559 14.9538 137.946 15.0388 138.35 15.1068C139.277 15.2938 140.111 15.5404 140.852 15.8464C141.61 16.1523 142.259 16.5263 142.799 16.9683C143.355 17.4103 143.776 17.9374 144.062 18.5493C144.365 19.1443 144.517 19.8413 144.517 20.6404C144.517 21.8814 144.214 22.9353 143.607 23.8024C143.018 24.6524 142.2 25.3069 141.156 25.7659C140.127 26.2079 138.94 26.4289 137.591 26.4289ZM156.29 31.7839V22.9099L157.174 23.1139C157.106 23.5389 156.93 23.9554 156.643 24.3634C156.357 24.7544 155.994 25.1029 155.557 25.4089C155.135 25.7149 154.655 25.9613 154.116 26.1483C153.577 26.3184 153.021 26.4033 152.447 26.4033C151.268 26.4033 150.223 26.1059 149.314 25.5109C148.404 24.8989 147.688 24.0658 147.165 23.0119C146.643 21.9578 146.382 20.7509 146.382 19.3909C146.382 18.0138 146.635 16.7984 147.14 15.7443C147.662 14.6904 148.37 13.8659 149.263 13.2709C150.173 12.6589 151.193 12.3529 152.321 12.3529C152.962 12.3529 153.568 12.4464 154.141 12.6334C154.714 12.8204 155.228 13.0668 155.682 13.3728C156.138 13.6789 156.509 14.0358 156.795 14.4438C157.081 14.8349 157.241 15.2514 157.275 15.6934L156.365 15.8464L156.517 12.6334H160.359V31.7839H156.29ZM153.358 22.9608C153.981 22.9608 154.52 22.8164 154.975 22.5274C155.43 22.2383 155.784 21.8303 156.037 21.3034C156.29 20.7593 156.416 20.1218 156.416 19.3909C156.416 18.6599 156.29 18.0309 156.037 17.5038C155.784 16.9599 155.43 16.5434 154.975 16.2544C154.52 15.9484 153.981 15.7954 153.358 15.7954C152.751 15.7954 152.221 15.9484 151.765 16.2544C151.31 16.5434 150.957 16.9599 150.704 17.5038C150.468 18.0478 150.35 18.6768 150.35 19.3909C150.35 20.1218 150.468 20.7593 150.704 21.3034C150.957 21.8303 151.31 22.2383 151.765 22.5274C152.221 22.8164 152.751 22.9608 153.358 22.9608ZM168.528 26.4544C167.533 26.4544 166.682 26.2418 165.974 25.8169C165.284 25.3749 164.744 24.7459 164.357 23.9299C163.986 23.1139 163.801 22.1364 163.801 20.9974V12.6334H167.87V20.4363C167.87 20.9803 167.954 21.4478 168.123 21.8389C168.291 22.2299 168.544 22.5359 168.881 22.7569C169.218 22.9608 169.622 23.0629 170.094 23.0629C170.448 23.0629 170.768 23.0034 171.055 22.8844C171.358 22.7654 171.611 22.6039 171.813 22.3999C172.032 22.1788 172.201 21.9324 172.319 21.6604C172.436 21.3714 172.495 21.0569 172.495 20.7169V12.6334H176.564V26.1739H172.748L172.571 23.3944L173.329 23.0883C173.128 23.7344 172.79 24.3124 172.319 24.8223C171.847 25.3154 171.282 25.7149 170.625 26.0208C169.968 26.3099 169.269 26.4544 168.528 26.4544ZM185.122 26.4033C183.994 26.4033 182.982 26.1059 182.089 25.5109C181.213 24.8989 180.514 24.0658 179.991 23.0119C179.469 21.9409 179.208 20.7339 179.208 19.3909C179.208 18.0138 179.469 16.7984 179.991 15.7443C180.514 14.6904 181.23 13.8659 182.14 13.2709C183.05 12.6589 184.086 12.3529 185.249 12.3529C185.889 12.3529 186.47 12.4464 186.992 12.6334C187.532 12.8204 188.004 13.0838 188.408 13.4239C188.812 13.7468 189.157 14.1293 189.444 14.5713C189.731 14.9964 189.941 15.4553 190.076 15.9484L189.241 15.8464V12.6334H193.26V26.1739H189.166V22.9099L190.076 22.8844C189.941 23.3604 189.722 23.8109 189.419 24.2359C189.116 24.6609 188.745 25.0349 188.307 25.3578C187.869 25.6809 187.38 25.9359 186.841 26.1229C186.302 26.3099 185.728 26.4033 185.122 26.4033ZM186.234 22.9608C186.858 22.9608 187.397 22.8164 187.852 22.5274C188.307 22.2383 188.66 21.8303 188.913 21.3034C189.166 20.7593 189.293 20.1218 189.293 19.3909C189.293 18.6599 189.166 18.0309 188.913 17.5038C188.66 16.9599 188.307 16.5434 187.852 16.2544C187.397 15.9484 186.858 15.7954 186.234 15.7954C185.628 15.7954 185.097 15.9484 184.642 16.2544C184.204 16.5434 183.859 16.9599 183.606 17.5038C183.353 18.0309 183.226 18.6599 183.226 19.3909C183.226 20.1218 183.353 20.7593 183.606 21.3034C183.859 21.8303 184.204 22.2383 184.642 22.5274C185.097 22.8164 185.628 22.9608 186.234 22.9608ZM196.828 26.1739V12.6334H200.67L200.847 17.0449L200.089 16.2034C200.291 15.4724 200.62 14.8178 201.075 14.2399C201.547 13.6618 202.094 13.2029 202.718 12.8628C203.341 12.5228 204.007 12.3529 204.714 12.3529C205.017 12.3529 205.295 12.3784 205.548 12.4293C205.818 12.4804 206.062 12.5399 206.281 12.6079L205.169 17.1214C204.984 17.0023 204.731 16.9088 204.411 16.8408C204.108 16.7558 203.788 16.7133 203.451 16.7133C203.08 16.7133 202.734 16.7813 202.414 16.9174C202.094 17.0363 201.825 17.2149 201.606 17.4529C201.387 17.6908 201.209 17.9714 201.075 18.2943C200.957 18.6174 200.898 18.9829 200.898 19.3909V26.1739H196.828ZM214.158 26.4289C212.675 26.4289 211.385 26.1314 210.29 25.5364C209.195 24.9244 208.344 24.0998 207.738 23.0629C207.131 22.0089 206.827 20.8104 206.827 19.4673C206.827 18.4304 206.996 17.4783 207.333 16.6114C207.67 15.7443 208.141 14.9964 208.749 14.3674C209.355 13.7213 210.071 13.2284 210.897 12.8884C211.739 12.5313 212.657 12.3529 213.652 12.3529C214.595 12.3529 215.454 12.5228 216.229 12.8628C217.022 13.2029 217.704 13.6789 218.277 14.2908C218.849 14.9029 219.287 15.6254 219.591 16.4584C219.895 17.2913 220.029 18.2008 219.995 19.1869L219.97 20.2833H209.28L208.697 17.9884H216.685L216.255 18.4729V17.9629C216.221 17.5378 216.086 17.1638 215.851 16.8408C215.632 16.5008 215.336 16.2374 214.966 16.0503C214.595 15.8633 214.174 15.7698 213.702 15.7698C213.045 15.7698 212.481 15.9059 212.009 16.1778C211.554 16.4328 211.208 16.8153 210.973 17.3254C210.736 17.8183 210.618 18.4304 210.618 19.1614C210.618 19.9094 210.77 20.5638 211.073 21.1249C211.394 21.6688 211.848 22.0939 212.438 22.3999C213.045 22.7059 213.761 22.8589 214.587 22.8589C215.16 22.8589 215.665 22.7738 216.103 22.6039C216.558 22.4339 217.047 22.1448 217.569 21.7368L219.465 24.4399C218.942 24.8989 218.386 25.2729 217.797 25.5619C217.207 25.8509 216.6 26.0634 215.977 26.1994C215.37 26.3524 214.764 26.4289 214.158 26.4289Z" fill="#130E3A"/>
<defs>
<linearGradient id="paint0_linear_1203_330" x1="24.0308" y1="6.3065" x2="6.67188" y2="25.7845" gradientUnits="userSpaceOnUse">
<stop stop-color="#F170A8"/>
<stop offset="0.473958" stop-color="#D561CE"/>
<stop offset="1" stop-color="#6EBFFA"/>
</linearGradient>
<linearGradient id="paint1_linear_1203_330" x1="24.032" y1="6.30651" x2="6.67306" y2="25.7845" gradientUnits="userSpaceOnUse">
<stop stop-color="#F170A8"/>
<stop offset="0.473958" stop-color="#D561CE"/>
<stop offset="1" stop-color="#6EBFFA"/>
</linearGradient>
<linearGradient id="paint2_linear_1203_330" x1="24.0308" y1="6.30626" x2="6.67186" y2="25.7842" gradientUnits="userSpaceOnUse">
<stop stop-color="#F170A8"/>
<stop offset="0.473958" stop-color="#D561CE"/>
<stop offset="1" stop-color="#6EBFFA"/>
</linearGradient>
<linearGradient id="paint3_linear_1203_330" x1="24.0313" y1="6.3066" x2="6.67234" y2="25.7846" gradientUnits="userSpaceOnUse">
<stop stop-color="#F170A8"/>
<stop offset="0.473958" stop-color="#D561CE"/>
<stop offset="1" stop-color="#6EBFFA"/>
</linearGradient>
<linearGradient id="paint4_linear_1203_330" x1="24.0311" y1="6.30643" x2="6.67218" y2="25.7844" gradientUnits="userSpaceOnUse">
<stop stop-color="#F170A8"/>
<stop offset="0.473958" stop-color="#D561CE"/>
<stop offset="1" stop-color="#6EBFFA"/>
</linearGradient>
</defs>
</svg>
