<svg width="106" height="24" viewBox="0 0 106 24" fill="none" xmlns="http://www.w3.org/2000/svg">
<path d="M4.82613 11.984C4.82613 6.55126 7.89137 3.64314 11.5762 3.64314C15.261 3.64314 18.3262 6.55126 18.3262 11.984C18.3262 17.4487 15.261 20.3569 11.5762 20.3569C7.89137 20.3569 4.82613 17.4487 4.82613 11.984ZM23.1524 11.984C23.1524 4.79361 18.6197 0 11.5762 0C4.53264 0 0 4.79361 0 11.984C0 19.1744 4.53264 24 11.5762 24C18.6197 24 23.1524 19.1744 23.1524 11.984Z" fill="#18181A"></path>
<path d="M40.6055 23.5846L46.4099 6.16778V23.5846H50.7469V0.415446H43.899L38.3229 18.4714L32.5837 0.415446H25.8011V23.5846H30.1381V6.16778L35.9751 23.5846H40.6055Z" fill="#18181A"></path>
<path d="M74.2427 23.5846V0.415446H69.8405V18.0879L60.3839 0.415446H54.3186V23.5846H58.7208V5.91212L68.1774 23.5846H74.2427Z" fill="#18181A"></path>
<path d="M82.4996 0.415446H77.8366V23.5846H82.4996V0.415446Z" fill="#18181A"></path>
<path d="M83.6629 23.5846H88.4238L90.0868 18.8868H99.2826L100.946 23.5846H106L97.163 0.415446H92.4673L83.6629 23.5846ZM94.6847 6.00799L97.9456 15.1478H91.4238L94.6847 6.00799Z" fill="#18181A"></path>
</svg>