<svg width="209" height="51" viewBox="0 0 209 51" fill="none" xmlns="http://www.w3.org/2000/svg">
<path fill-rule="evenodd" clip-rule="evenodd" d="M40.8742 8.67917L27.4847 1.21551C24.5773 -0.405171 20.9952 -0.405171 18.0878 1.21551L4.69844 8.67917C1.79104 10.2999 0 13.295 0 16.5364V31.4637C0 34.705 1.79104 37.7001 4.69844 39.3209L18.0878 46.7846C20.9952 48.4051 24.5773 48.4051 27.4847 46.7846L40.8742 39.3209C43.7816 37.7001 45.5726 34.705 45.5726 31.4637V16.5364C45.5726 13.295 43.7816 10.2999 40.8742 8.67917ZM34.9222 23.2767C34.9335 23.0519 34.9391 22.824 34.9391 22.5928C34.9391 16.0081 30.3713 12 24.019 12H15.5493V23.2767H20.7521V16.7715H24.0493C27.7397 16.7715 29.6151 19.3163 29.6151 22.5928C29.6151 22.8235 29.6041 23.0518 29.5822 23.2767H34.9222ZM10.6336 25.5906V36.0001H19.1349C25.3657 36.0001 29.8926 32.0502 30.0232 25.5906H24.6958C24.5749 28.6364 22.5365 31.1957 19.1046 31.1957H15.8372V25.5906H10.6336Z" fill="#1452F0"/>
<path d="M78.5401 23.9492C78.5401 25.5254 78.2534 26.8898 77.6794 28.0424C77.122 29.178 76.3759 30.1187 75.4412 30.8645C74.5228 31.5932 73.4816 32.1356 72.3174 32.4915C71.1532 32.8307 69.9724 33 68.7754 33H62.2822V15H68.5786C69.8084 15 71.022 15.1525 72.219 15.4576C73.416 15.7458 74.4819 16.2373 75.4165 16.9322C76.3512 17.6102 77.1054 18.5254 77.6794 19.678C78.2534 20.8305 78.5401 22.2542 78.5401 23.9492ZM74.1621 23.9492C74.1621 22.9322 73.9981 22.0932 73.6702 21.4322C73.3585 20.7542 72.9323 20.2203 72.3911 19.8305C71.8664 19.4237 71.2596 19.1356 70.571 18.9661C69.8987 18.7966 69.202 18.7119 68.4803 18.7119H66.3898V29.2373H68.3819C69.1364 29.2373 69.8578 29.1526 70.5464 28.9831C71.2515 28.7966 71.8664 28.5 72.3911 28.0932C72.9323 27.6865 73.3585 27.1441 73.6702 26.4661C73.9981 25.7882 74.1621 24.9491 74.1621 23.9492Z" fill="#050F19"/>
<path d="M82.8682 33V15H94.5759V18.6864H86.9264V22.0678H94.1578V25.5509H86.9264V29.2882H95.0188V33H82.8682Z" fill="#050F19"/>
<path d="M103.502 18.7119V22.4237H110.241V26.0085H103.502V33H99.3447V15H110.807V18.7119H103.502Z" fill="#050F19"/>
<path d="M115.055 33V15H119.285V33H115.055Z" fill="#050F19"/>
<path d="M132.882 25.3729V33H128.676V25.3729L122.134 15H127.225L130.939 21.661L134.653 15H139.572L132.882 25.3729Z" fill="#050F19"/>
<path d="M142.412 33V15H146.643V33H142.412Z" fill="#050F19"/>
<path d="M151.781 33V15H163.489V18.6864H155.839V22.0678H163.071V25.5509H155.839V29.2882H163.932V33H151.781Z" fill="#050F19"/>
<path d="M168.258 33V15H172.488V29.2119H179.228V33H168.258Z" fill="#050F19"/>
<path d="M199 23.9492C199 25.5254 198.713 26.8898 198.139 28.0424C197.582 29.178 196.836 30.1187 195.901 30.8645C194.983 31.5932 193.942 32.1356 192.777 32.4915C191.613 32.8307 190.433 33 189.236 33H182.742V15H189.039C190.269 15 191.482 15.1525 192.679 15.4576C193.876 15.7458 194.942 16.2373 195.877 16.9322C196.811 17.6102 197.566 18.5254 198.139 19.678C198.713 20.8305 199 22.2542 199 23.9492ZM194.622 23.9492C194.622 22.9322 194.458 22.0932 194.13 21.4322C193.819 20.7542 193.393 20.2203 192.851 19.8305C192.327 19.4237 191.72 19.1356 191.031 18.9661C190.359 18.7966 189.662 18.7119 188.941 18.7119H186.85V29.2373H188.842C189.596 29.2373 190.318 29.1526 191.007 28.9831C191.711 28.7966 192.327 28.5 192.851 28.0932C193.393 27.6865 193.819 27.1441 194.13 26.4661C194.458 25.7882 194.622 24.9491 194.622 23.9492Z" fill="#050F19"/>
<path fill-rule="evenodd" clip-rule="evenodd" d="M34.9224 23.2767C34.9337 23.0519 34.9393 22.824 34.9393 22.5928C34.9393 16.0081 30.3715 12 24.0192 12H15.5495V23.2767H20.7523V16.7715H24.0495C27.7399 16.7715 29.6153 19.3163 29.6153 22.5928C29.6153 22.8235 29.6043 23.0517 29.5824 23.2767H34.9224ZM10.6338 25.5905V36.0001H19.1351C25.3659 36.0001 29.8928 32.0502 30.0234 25.5905H24.696C24.5751 28.6364 22.5367 31.1957 19.1048 31.1957H15.8374V25.5905H10.6338Z" fill="white"/>
</svg>
