<svg xmlns="http://www.w3.org/2000/svg" xmlns:xlink="http://www.w3.org/1999/xlink"><symbol id="icon-arr-down" viewBox="0 0 14 8"><path fill-rule="evenodd" clip-rule="evenodd" d="M7 6.316L13.177 0 14 .842 7 8 0 .842.824 0 7 6.316z"/></symbol><symbol id="icon-menu" viewBox="0 0 20 18"><path d="M0 0h20v2H0zM0 8h20v2H0zM0 16h20v2H0z"/></symbol><symbol id="icon-person" viewBox="0 0 24 24"><path fill-rule="evenodd" clip-rule="evenodd" d="M14.571 6.857a2.857 2.857 0 11-5.714 0 2.857 2.857 0 015.714 0zm1 0a3.857 3.857 0 11-7.714 0 3.857 3.857 0 017.714 0zM5 20v-2.857A4.143 4.143 0 019.143 13h5.143a4.143 4.143 0 014.143 4.143V20H5zm14.429-2.857V21H4v-3.857A5.143 5.143 0 019.143 12h5.143a5.143 5.143 0 015.143 5.143z"/></symbol><symbol id="icon-soc-git" viewBox="0 0 24 24"><path d="M14.973 2.232a13.134 13.134 0 00-5.945 0c-1.13-.693-1.992-1.011-2.62-1.145A3.472 3.472 0 005.594 1a2.014 2.014 0 00-.373.046l-.015.003-.006.002-.004.001h-.003l.22.77-.22-.77a.8.8 0 00-.51.444 4.992 4.992 0 00-.255 3.361A5.366 5.366 0 003.2 8.287c0 2.484.733 4.154 1.982 5.227.875.752 1.94 1.152 3.004 1.382-.176.488-.221 1.005-.186 1.532v.957c-.651.137-1.101.094-1.422-.012-.403-.133-.713-.4-1.007-.785a7.687 7.687 0 01-.432-.642l-.091-.15a14.79 14.79 0 00-.359-.565c-.305-.45-.756-1.013-1.485-1.205l-.774-.203-.407 1.548.774.203c.127.033.295.152.568.555.1.148.196.304.305.482l.108.176c.15.243.322.513.523.775.405.528.957 1.06 1.775 1.33.563.186 1.198.23 1.924.119V22a.8.8 0 00.8.8h6.4a.8.8 0 00.8-.8v-5.7c0-.505-.022-.967-.164-1.398 1.06-.224 2.115-.624 2.985-1.377 1.248-1.08 1.98-2.766 1.98-5.265v-.003a5.367 5.367 0 00-1.229-3.399 4.992 4.992 0 00-.254-3.361.8.8 0 00-.51-.443l-.22.769c.22-.77.217-.77.216-.77l-.003-.001-.007-.002-.014-.004a1.112 1.112 0 00-.12-.024 2.02 2.02 0 00-.253-.021 3.475 3.475 0 00-.815.086c-.627.134-1.49.452-2.62 1.145z"/></symbol><symbol id="icon-soc-mail" viewBox="0 0 24 24"><path d="M0 7.65v8.803l6.288-4.087L0 7.65zM24 16.453V7.65l-6.288 4.716L24 16.453zM12 16.65l-4.179-3.134L0 18.6v1.8h24v-1.8l-7.821-5.084L12 16.65z"/><path d="M0 5.4l12 9 12-9V3.6H0v1.8z"/></symbol><symbol id="icon-soc-tgm" viewBox="0 0 24 24"><path d="M.424 11.572l5.53 2.064 2.14 6.883a.651.651 0 001.034.312l3.083-2.513a.92.92 0 011.121-.032l5.56 4.037a.652.652 0 001.021-.394l4.073-19.591a.652.652 0 00-.873-.741L.417 10.352a.652.652 0 00.007 1.22zm7.326.965L18.557 5.88c.195-.119.394.144.228.298l-8.92 8.292a1.849 1.849 0 00-.573 1.106l-.304 2.252c-.04.3-.462.33-.545.04L7.274 13.76a1.088 1.088 0 01.476-1.224z"/></symbol><symbol id="icon-soc-twt" viewBox="0 0 24 24"><g clip-path="url(#clip0_1069_505)"><path d="M23.456 4.268a9.104 9.104 0 01-1.16.423 5.131 5.131 0 001.044-1.837.387.387 0 00-.566-.451 9.135 9.135 0 01-2.7 1.067A5.178 5.178 0 0016.467 2a5.158 5.158 0 00-5.11 5.818 13.19 13.19 0 01-9.053-4.803.387.387 0 00-.634.05 5.15 5.15 0 00-.698 2.59c0 1.241.443 2.42 1.226 3.34a4.366 4.366 0 01-.69-.308.387.387 0 00-.575.33v.068a5.17 5.17 0 002.522 4.43 4.466 4.466 0 01-.392-.056.387.387 0 00-.441.498 5.15 5.15 0 003.774 3.453 9.114 9.114 0 01-4.872 1.391 9.3 9.3 0 01-1.091-.064.388.388 0 00-.255.71 13.894 13.894 0 007.513 2.203c5.246 0 8.527-2.474 10.356-4.549 2.281-2.587 3.59-6.012 3.59-9.396 0-.142-.003-.284-.007-.427.9-.678 1.674-1.498 2.305-2.441a.387.387 0 00-.479-.57z"/></g><defs><clipPath id="clip0_1069_505"><path d="M0 0h24v24H0z"/></clipPath></defs></symbol><symbol id="icon-tgm" viewBox="0 0 24 24"><path d="M22.391 2.081c.4-.1.576-.011.621.378-1.107 4.651-2.168 9.219-3.429 13.769l-.837 3.294a1.655 1.655 0 01-.486 1.134 1.613 1.613 0 01-1.323-.324L14.13 18.9a1.639 1.639 0 00-1.03-.35 2.53 2.53 0 00-.81.81l-1.863 2.106a1.081 1.081 0 01-1.161.621c-.466-.177-.528-.971-.671-1.487-.4-1.566-.81-3.078-1.215-4.644a3.158 3.158 0 00-1.512-.837l-3.429-1.456c-.409-.171-1.775-.463-1.268-1.215a4.362 4.362 0 011.512-.783l4.1-2zM21.23 4.943l-9.5 11.5c3.771 1.92 5.79 2.989 5.967 3.051 1.203-4.814 2.408-9.71 3.614-14.524.008-.047-.043-.07-.081-.027zm-2.619.135l-15.6 7.613.049.081L6.543 14.2a3.21 3.21 0 001.161.432 7.316 7.316 0 001.215-1.026l2.43-2.106 7.4-6.344c.032-.088-.049-.104-.138-.078zM17.45 7.642l-2.43 2.106-3.969 3.483A21.268 21.268 0 008.46 15.5c.3 1.494.835 3.171 1.053 4.05l.351-1.242.486-1.782a13.736 13.736 0 012.16-2.726l5.022-6.075v-.083h-.082zm-6.236 9.773l-.567 2.079.027.027.189-.162 1.269-1.512z" fill-rule="evenodd"/></symbol><symbol id="icon-user" viewBox="0 0 24 24"><path d="M21.989 19.172a.114.114 0 010 .022 14 14 0 01-1.261 1.271 13.865 13.865 0 01-18.447-.035 13.994 13.994 0 01-1.258-1.278.023.023 0 010-.012A11.054 11.054 0 018.19 12a6.455 6.455 0 116.706.028 11.054 11.054 0 017.093 7.144zM16.606 6.477A5.04 5.04 0 1011 11.5a12.015 12.015 0 011.1.004 5.051 5.051 0 004.506-5.027zM11.5 13.043a9.464 9.464 0 00-8.731 5.831.1.1 0 000 .034 12.429 12.429 0 0017.479.029.018.018 0 000-.018 9.464 9.464 0 00-8.748-5.876z" fill-rule="evenodd"/></symbol> <view id="icon-arr-down-view-black" viewBox="0 0 14 8"/><view id="icon-arr-down-view-white" viewBox="0 18 14 8"/><view id="icon-arr-down-view-marine" viewBox="0 36 14 8"/><view id="icon-menu-view-black" viewBox="0 54 20 18"/><view id="icon-menu-view-white" viewBox="0 82 20 18"/><view id="icon-menu-view-marine" viewBox="0 110 20 18"/><view id="icon-person-view-black" viewBox="0 138 24 24"/><view id="icon-person-view-white" viewBox="0 172 24 24"/><view id="icon-person-view-marine" viewBox="0 206 24 24"/><view id="icon-soc-git-view-black" viewBox="0 240 24 24"/><view id="icon-soc-git-view-white" viewBox="0 274 24 24"/><view id="icon-soc-git-view-marine" viewBox="0 308 24 24"/><view id="icon-soc-mail-view-black" viewBox="0 342 24 24"/><view id="icon-soc-mail-view-white" viewBox="0 376 24 24"/><view id="icon-soc-mail-view-marine" viewBox="0 410 24 24"/><view id="icon-soc-tgm-view-black" viewBox="0 444 24 24"/><view id="icon-soc-tgm-view-white" viewBox="0 478 24 24"/><view id="icon-soc-tgm-view-marine" viewBox="0 512 24 24"/><view id="icon-soc-twt-view-black" viewBox="0 546 24 24"/><view id="icon-soc-twt-view-white" viewBox="0 580 24 24"/><view id="icon-soc-twt-view-marine" viewBox="0 614 24 24"/><view id="icon-tgm-view-black" viewBox="0 648 24 24"/><view id="icon-tgm-view-white" viewBox="0 682 24 24"/><view id="icon-tgm-view-marine" viewBox="0 716 24 24"/><view id="icon-user-view-black" viewBox="0 750 24 24"/><view id="icon-user-view-white" viewBox="0 784 24 24"/><view id="icon-user-view-marine" viewBox="0 818 24 24"/> <use xlink:href="#icon-arr-down" x="0" y="0" width="14" height="8" style="fill:#000000"/><use xlink:href="#icon-arr-down" x="0" y="18" width="14" height="8" style="fill:#ffffff"/><use xlink:href="#icon-arr-down" x="0" y="36" width="14" height="8" style="fill:#196FBE"/><use xlink:href="#icon-menu" x="0" y="54" width="20" height="18" style="fill:#000000"/><use xlink:href="#icon-menu" x="0" y="82" width="20" height="18" style="fill:#ffffff"/><use xlink:href="#icon-menu" x="0" y="110" width="20" height="18" style="fill:#196FBE"/><use xlink:href="#icon-person" x="0" y="138" width="24" height="24" style="fill:#000000"/><use xlink:href="#icon-person" x="0" y="172" width="24" height="24" style="fill:#ffffff"/><use xlink:href="#icon-person" x="0" y="206" width="24" height="24" style="fill:#196FBE"/><use xlink:href="#icon-soc-git" x="0" y="240" width="24" height="24" style="fill:#000000"/><use xlink:href="#icon-soc-git" x="0" y="274" width="24" height="24" style="fill:#ffffff"/><use xlink:href="#icon-soc-git" x="0" y="308" width="24" height="24" style="fill:#196FBE"/><use xlink:href="#icon-soc-mail" x="0" y="342" width="24" height="24" style="fill:#000000"/><use xlink:href="#icon-soc-mail" x="0" y="376" width="24" height="24" style="fill:#ffffff"/><use xlink:href="#icon-soc-mail" x="0" y="410" width="24" height="24" style="fill:#196FBE"/><use xlink:href="#icon-soc-tgm" x="0" y="444" width="24" height="24" style="fill:#000000"/><use xlink:href="#icon-soc-tgm" x="0" y="478" width="24" height="24" style="fill:#ffffff"/><use xlink:href="#icon-soc-tgm" x="0" y="512" width="24" height="24" style="fill:#196FBE"/><use xlink:href="#icon-soc-twt" x="0" y="546" width="24" height="24" style="fill:#000000"/><use xlink:href="#icon-soc-twt" x="0" y="580" width="24" height="24" style="fill:#ffffff"/><use xlink:href="#icon-soc-twt" x="0" y="614" width="24" height="24" style="fill:#196FBE"/><use xlink:href="#icon-tgm" x="0" y="648" width="24" height="24" style="fill:#000000"/><use xlink:href="#icon-tgm" x="0" y="682" width="24" height="24" style="fill:#ffffff"/><use xlink:href="#icon-tgm" x="0" y="716" width="24" height="24" style="fill:#196FBE"/><use xlink:href="#icon-user" x="0" y="750" width="24" height="24" style="fill:#000000"/><use xlink:href="#icon-user" x="0" y="784" width="24" height="24" style="fill:#ffffff"/><use xlink:href="#icon-user" x="0" y="818" width="24" height="24" style="fill:#196FBE"/></svg>