<svg xmlns="http://www.w3.org/2000/svg" xmlns:xlink="http://www.w3.org/1999/xlink"><symbol id="icon-arr-down" viewBox="0 0 14 8"><path fill-rule="evenodd" clip-rule="evenodd" d="M7 6.316L13.177 0 14 .842 7 8 0 .842.824 0 7 6.316z"/></symbol><symbol id="icon-mail" viewBox="0 0 24 24"><path d="M.8 7.2L12 13.6l11.2-6.4M2.4 2.4h19.2A1.6 1.6 0 0123.2 4v16a1.6 1.6 0 01-1.6 1.6H2.4A1.6 1.6 0 01.8 20V4a1.6 1.6 0 011.6-1.6z"/></symbol><symbol id="icon-menu" viewBox="0 0 20 18"><path d="M0 0h20v2H0zM0 8h20v2H0zM0 16h20v2H0z"/></symbol><symbol id="icon-person" viewBox="0 0 24 24"><path fill-rule="evenodd" clip-rule="evenodd" d="M14.571 6.857a2.857 2.857 0 11-5.714 0 2.857 2.857 0 015.714 0zm1 0a3.857 3.857 0 11-7.714 0 3.857 3.857 0 017.714 0zM5 20v-2.857A4.143 4.143 0 019.143 13h5.143a4.143 4.143 0 014.143 4.143V20H5zm14.429-2.857V21H4v-3.857A5.143 5.143 0 019.143 12h5.143a5.143 5.143 0 015.143 5.143z"/></symbol><symbol id="icon-tgm" viewBox="0 0 24 24"><path d="M22.391 2.081c.4-.1.576-.011.621.378-1.107 4.651-2.168 9.219-3.429 13.769l-.837 3.294a1.655 1.655 0 01-.486 1.134 1.613 1.613 0 01-1.323-.324L14.13 18.9a1.639 1.639 0 00-1.03-.35 2.53 2.53 0 00-.81.81l-1.863 2.106a1.081 1.081 0 01-1.161.621c-.466-.177-.528-.971-.671-1.487-.4-1.566-.81-3.078-1.215-4.644a3.158 3.158 0 00-1.512-.837l-3.429-1.456c-.409-.171-1.775-.463-1.268-1.215a4.362 4.362 0 011.512-.783l4.1-2zM21.23 4.943l-9.5 11.5c3.771 1.92 5.79 2.989 5.967 3.051 1.203-4.814 2.408-9.71 3.614-14.524.008-.047-.043-.07-.081-.027zm-2.619.135l-15.6 7.613.049.081L6.543 14.2a3.21 3.21 0 001.161.432 7.316 7.316 0 001.215-1.026l2.43-2.106 7.4-6.344c.032-.088-.049-.104-.138-.078zM17.45 7.642l-2.43 2.106-3.969 3.483A21.268 21.268 0 008.46 15.5c.3 1.494.835 3.171 1.053 4.05l.351-1.242.486-1.782a13.736 13.736 0 012.16-2.726l5.022-6.075v-.083h-.082zm-6.236 9.773l-.567 2.079.027.027.189-.162 1.269-1.512z" fill-rule="evenodd"/></symbol><symbol id="icon-tgm2" viewBox="0 0 24 24"><path d="M23.25 2.25L.75 10.286 7.179 13.5l9.642-6.429-6.428 8.036 9.643 6.429L23.25 2.25z" stroke-linejoin="round"/></symbol><symbol id="icon-twt" viewBox="0 0 24 24"><path d="M23.215 2.25l.5-.033a.5.5 0 00-.871-.301l.371.334zm-1.104 4.755a.5.5 0 10-1 0h1zM12 8.438v.5h.5v-.5H12zM2.355 2.25l.468-.175a.5.5 0 00-.916-.048l.448.223zm6.27 14.625l.354.353a.5.5 0 00-.196-.827l-.158.474zM.75 19.929v-.5a.5.5 0 00-.278.915l.278-.415zM20.383 3.814l-.37.336.18.199.265-.04-.075-.495zm2.333-1.53c.084 1.264.01 2.072-.213 2.7-.22.62-.6 1.115-1.238 1.726l.691.722c.689-.66 1.195-1.283 1.49-2.113.29-.819.355-1.787.268-3.102l-.998.066zm-.605 5.892V7.071h-1v1.105h1zm0-1.105v-.066h-1v.066h1zM11.5 7.313v1.125h1V7.312h-1zm5.363-5.563c-2.997 0-5.363 2.613-5.363 5.563h1c0-2.45 1.969-4.563 4.363-4.563v-1zm4.248 6.426c0 7.112-5.968 13.261-13.049 13.261v1c7.653 0 14.049-6.616 14.049-14.26h-1zM1.886 2.426C2.74 4.705 5.96 8.936 12 8.936v-1c-5.513 0-8.427-3.858-9.177-5.862l-.937.35zm.021-.4c-1.651 3.31-1.926 6.518-.79 9.236 1.136 2.718 3.641 4.85 7.35 6.087l.316-.948c-3.512-1.173-5.747-3.14-6.743-5.525-.997-2.384-.796-5.283.762-8.403l-.895-.446zm6.364 14.496c-.998 1-3.831 2.907-7.521 2.907v1c4.013 0 7.088-2.058 8.229-3.2l-.708-.707zM20.754 3.479a5.232 5.232 0 00-3.891-1.729v1c1.248 0 2.371.54 3.15 1.4l.74-.671zm-.296.83c1.15-.174 2.28-.78 3.129-1.725l-.743-.668c-.701.778-1.624 1.266-2.536 1.404l.15.989zM.472 20.344c2.516 1.68 4.936 2.093 7.59 2.093v-1c-2.53 0-4.736-.39-7.034-1.924l-.556.831z"/></symbol> <view id="icon-arr-down-view-black" viewBox="0 0 14 8"/><view id="icon-arr-down-view-white" viewBox="0 18 14 8"/><view id="icon-arr-down-view-marine" viewBox="0 36 14 8"/><view id="icon-mail-view-black" viewBox="0 54 24 24"/><view id="icon-mail-view-white" viewBox="0 88 24 24"/><view id="icon-mail-view-marine" viewBox="0 122 24 24"/><view id="icon-menu-view-black" viewBox="0 156 20 18"/><view id="icon-menu-view-white" viewBox="0 184 20 18"/><view id="icon-menu-view-marine" viewBox="0 212 20 18"/><view id="icon-person-view-black" viewBox="0 240 24 24"/><view id="icon-person-view-white" viewBox="0 274 24 24"/><view id="icon-person-view-marine" viewBox="0 308 24 24"/><view id="icon-tgm-view-black" viewBox="0 342 24 24"/><view id="icon-tgm-view-white" viewBox="0 376 24 24"/><view id="icon-tgm-view-marine" viewBox="0 410 24 24"/><view id="icon-tgm2-view-black" viewBox="0 444 24 24"/><view id="icon-tgm2-view-white" viewBox="0 478 24 24"/><view id="icon-tgm2-view-marine" viewBox="0 512 24 24"/><view id="icon-twt-view-black" viewBox="0 546 24 24"/><view id="icon-twt-view-white" viewBox="0 580 24 24"/><view id="icon-twt-view-marine" viewBox="0 614 24 24"/> <use xlink:href="#icon-arr-down" x="0" y="0" width="14" height="8" style="fill:#000000"/><use xlink:href="#icon-arr-down" x="0" y="18" width="14" height="8" style="fill:#ffffff"/><use xlink:href="#icon-arr-down" x="0" y="36" width="14" height="8" style="fill:#196FBE"/><use xlink:href="#icon-mail" x="0" y="54" width="24" height="24" style="fill:#000000"/><use xlink:href="#icon-mail" x="0" y="88" width="24" height="24" style="fill:#ffffff"/><use xlink:href="#icon-mail" x="0" y="122" width="24" height="24" style="fill:#196FBE"/><use xlink:href="#icon-menu" x="0" y="156" width="20" height="18" style="fill:#000000"/><use xlink:href="#icon-menu" x="0" y="184" width="20" height="18" style="fill:#ffffff"/><use xlink:href="#icon-menu" x="0" y="212" width="20" height="18" style="fill:#196FBE"/><use xlink:href="#icon-person" x="0" y="240" width="24" height="24" style="fill:#000000"/><use xlink:href="#icon-person" x="0" y="274" width="24" height="24" style="fill:#ffffff"/><use xlink:href="#icon-person" x="0" y="308" width="24" height="24" style="fill:#196FBE"/><use xlink:href="#icon-tgm" x="0" y="342" width="24" height="24" style="fill:#000000"/><use xlink:href="#icon-tgm" x="0" y="376" width="24" height="24" style="fill:#ffffff"/><use xlink:href="#icon-tgm" x="0" y="410" width="24" height="24" style="fill:#196FBE"/><use xlink:href="#icon-tgm2" x="0" y="444" width="24" height="24" style="fill:#000000"/><use xlink:href="#icon-tgm2" x="0" y="478" width="24" height="24" style="fill:#ffffff"/><use xlink:href="#icon-tgm2" x="0" y="512" width="24" height="24" style="fill:#196FBE"/><use xlink:href="#icon-twt" x="0" y="546" width="24" height="24" style="fill:#000000"/><use xlink:href="#icon-twt" x="0" y="580" width="24" height="24" style="fill:#ffffff"/><use xlink:href="#icon-twt" x="0" y="614" width="24" height="24" style="fill:#196FBE"/></svg>