<svg xmlns="http://www.w3.org/2000/svg" xmlns:xlink="http://www.w3.org/1999/xlink"><symbol id="shape-1" viewBox="0 0 196 272"><path d="M167.701 123.374c7.139-7.533 11.515-17.691 11.515-28.908v-4.99c0-26.568-21.53-48.107-48.089-48.107h-7.269V0H98v41.37H78.173V0H52.315v41.37H0V69.31h33.55v134.572H4.605L0 231.825h52.315V272h25.858v-40.175H98V272h25.858v-40.175h17.407c30.23 0 54.735-24.514 54.735-54.755v-5.76c0-20.662-11.421-38.63-28.299-47.936zM78.197 66.201h35.992c6.377 0 12.134 2.58 16.278 6.75a22.985 22.985 0 016.748 16.31c0 12.713-10.293 23.034-23.026 23.034H78.197V66.201zM119.922 204.3h-41.75v-60.214h41.75a29.931 29.931 0 0121.278 8.821 29.951 29.951 0 018.817 21.286c0 16.631-13.471 30.107-30.095 30.107z" fill="#9CD6DF"/></symbol><symbol id="shape-2" viewBox="0 0 209 226"><path d="M184.27 219.357c-23.638 13.671-53.854 5.566-67.504-18.107-8.479-14.706-8.568-31.951-1.758-46.181 1.936-4.044 1.782-8.772-.451-12.655a13.536 13.536 0 00-11.738-6.791h-1.425c-4.554 0-8.723 2.349-11.311 6.102-10.017 14.527-27.61 23.417-47.073 20.973C20.649 159.891 2.795 141.707.313 119.27-2.988 89.4 20.269 64.122 49.404 64.122c16.982 0 31.956 8.569 40.845 21.622C92.7 89.34 96.667 91.6 101.02 91.6h.789a12.83 12.83 0 0011.115-6.428l1.105-1.92a12.787 12.787 0 00.433-12.001c-6.965-14.284-6.941-31.677 1.597-46.496C129.71 1.083 159.926-7.023 183.581 6.63c23.638 13.67 31.73 43.957 18.08 67.624-8.473 14.676-23.323 23.382-39.016 24.589-4.477.345-8.502 2.848-10.741 6.743a13.614 13.614 0 000 13.588l.707 1.225c2.244 3.889 6.258 6.387 10.729 6.738 15.705 1.219 30.549 9.918 39.027 24.606 13.651 23.674 5.558 53.942-18.097 67.613z" fill="#9CD6DF"/></symbol><symbol id="shape-3" viewBox="0 0 217 250"><g clip-path="url(#clip0_815_1916)"><path d="M108.373 0L85.437 13.188l-62.5 36.124L0 62.5v125l22.936 13.188 63.073 36.124L108.946 250l22.936-13.188 61.926-36.124 22.936-13.188v-125l-22.936-13.188-62.5-36.124L108.373 0zm-62.5 161.124V88.876l62.5-36.124 62.5 36.124v72.248l-62.5 36.124-62.5-36.124z" fill="#9CD6DF"/></g><defs><clipPath id="clip0_815_1916"><path fill="#fff" d="M0 0h217v250H0z"/></clipPath></defs></symbol><symbol id="shape-4" viewBox="0 0 254 199"><g clip-path="url(#clip0_815_1920)" fill="#9CD6DF"><path d="M40.813 152.06a8.31 8.31 0 015.877-2.428h202.771c3.705 0 5.558 4.472 2.939 7.091l-40.056 40.056a8.315 8.315 0 01-5.878 2.428H3.696c-3.706 0-5.558-4.472-2.939-7.091l40.056-40.056zM40.813 2.505C42.41.972 44.518.078 46.69.078h202.771c3.705 0 5.558 4.472 2.939 7.09l-40.056 40.057a8.314 8.314 0 01-5.878 2.427H3.696c-3.706 0-5.558-4.472-2.939-7.09L40.813 2.504zM212.344 76.803a8.314 8.314 0 00-5.878-2.427H3.696c-3.706 0-5.558 4.472-2.939 7.091l40.056 40.056a8.313 8.313 0 005.877 2.427h202.771c3.705 0 5.558-4.472 2.939-7.091l-40.056-40.056z"/></g><defs><clipPath id="clip0_815_1920"><path fill="#fff" d="M0 0h254v199H0z"/></clipPath></defs></symbol><symbol id="shape-5" viewBox="0 0 123 179"><path d="M0 179V0h122.743v34.62H39.278v36.672h71.578v34.364H39.278v38.724h83.465V179H0z" fill="#71C4D0" fill-opacity="0.7"/></symbol><symbol id="shape-6" viewBox="0 0 203 227"><path d="M73.433 227L0 0h50.26l33.943 108.947 17.95 71.222h.979l17.297-71.222L154.371 0H203l-74.085 227H73.433z" fill="#71C4D0" fill-opacity="0.7"/></symbol><symbol id="shape-7" viewBox="0 0 174 194"><path d="M87.014 194c-13.672 0-25.93-2.235-36.774-6.706-10.608-4.471-19.683-10.942-27.227-19.414-7.308-8.471-12.965-18.707-16.973-30.708C2.033 125.171.03 111.759.03 96.934s2.003-28.237 6.01-40.238c4.008-12.001 9.666-22.12 16.973-30.355 7.544-8.472 16.62-14.943 27.227-19.414C61.084 2.457 73.342.221 87.014.221c13.673 0 25.813 2.235 36.421 6.706 10.844 4.471 19.92 10.942 27.227 19.413 7.544 8.236 13.319 18.355 17.327 30.356 4.007 12 6.011 25.413 6.011 40.238s-2.004 28.237-6.011 40.238c-4.008 12.001-9.783 22.237-17.327 30.708-7.307 8.472-16.383 14.943-27.227 19.414-10.608 4.471-22.748 6.706-36.42 6.706zm0-41.297c10.373 0 18.388-3.177 24.045-9.53 5.658-6.354 8.487-15.413 8.487-27.179V78.227c0-11.766-2.829-20.825-8.487-27.179-5.657-6.353-13.672-9.53-24.044-9.53-10.373 0-18.388 3.177-24.045 9.53-5.658 6.354-8.486 15.413-8.486 27.179v37.767c0 11.766 2.828 20.825 8.486 27.179 5.657 6.353 13.672 9.53 24.044 9.53z" fill="#71C4D0" fill-opacity="0.7"/></symbol> <view id="shape-1-view" viewBox="0 0 196 272"/><view id="shape-2-view" viewBox="0 282 209 226"/><view id="shape-3-view" viewBox="0 518 217 250"/><view id="shape-4-view" viewBox="0 778 254 199"/><view id="shape-5-view" viewBox="0 987 123 179"/><view id="shape-6-view" viewBox="0 1176 203 227"/><view id="shape-7-view" viewBox="0 1413 174 194"/> <use xlink:href="#shape-1" x="0" y="0" width="196" height="272"/><use xlink:href="#shape-2" x="0" y="282" width="209" height="226"/><use xlink:href="#shape-3" x="0" y="518" width="217" height="250"/><use xlink:href="#shape-4" x="0" y="778" width="254" height="199"/><use xlink:href="#shape-5" x="0" y="987" width="123" height="179"/><use xlink:href="#shape-6" x="0" y="1176" width="203" height="227"/><use xlink:href="#shape-7" x="0" y="1413" width="174" height="194"/></svg>